<svg fill="#000000" xmlns="http://www.w3.org/2000/svg" viewBox="0 0 24 24" width="48px" height="48px"><path d="M 4 2 C 2.898438 2 2 2.898438 2 4 L 2 20 C 2 21.101563 2.898438 22 4 22 L 20 22 C 21.101563 22 22 21.101563 22 20 L 22 4 C 22 2.898438 21.101563 2 20 2 Z M 12.25 4 C 13.257813 4 14.46875 4.980469 14.46875 9.65625 C 14.46875 11.328125 13.980469 13.816406 13.03125 15.8125 C 13.445313 16.375 13.839844 16.625 14.125 16.625 C 14.511719 16.546875 15.378906 15.003906 15.84375 13.53125 C 15.972656 13.125 16.386719 12.902344 16.78125 13.03125 C 17.183594 13.148438 17.398438 13.605469 17.28125 14 C 16.886719 15.253906 15.785156 18.15625 14.125 18.15625 C 13.601563 18.15625 12.921875 17.902344 12.25 17.21875 C 11.488281 18.285156 10.523438 19 9.40625 19 C 7.042969 19 6 16.847656 6 15 C 6 13.035156 7.003906 11.1875 9.1875 11.1875 C 9.554688 11.1875 9.890625 11.265625 10.1875 11.375 C 10.148438 10.8125 10.125 10.203125 10.125 9.5625 C 10.125 9.503906 10.125 4 12.25 4 Z M 12.3125 5.625 C 11.996094 6.179688 11.625 7.824219 11.625 9.5625 C 11.625 11.441406 11.839844 12.890625 12.15625 13.96875 C 12.640625 12.585938 12.96875 11.007813 12.96875 9.65625 C 12.96875 7.105469 12.550781 5.980469 12.3125 5.625 Z M 8.90625 12.71875 C 7.554688 12.988281 7.53125 15.179688 7.53125 15.28125 C 7.53125 15.941406 7.695313 17.46875 9.40625 17.46875 C 10.066406 17.46875 10.738281 16.84375 11.3125 15.875 C 10.964844 15.203125 10.644531 14.371094 10.4375 13.3125 C 10.386719 13.28125 10.34375 13.226563 10.3125 13.1875 C 10.3125 13.1875 9.828125 12.71875 9.1875 12.71875 C 9.085938 12.71875 8.996094 12.699219 8.90625 12.71875 Z"/></svg>