<?xml version="1.0" encoding="utf-8"?>
<!-- Generator: Adobe Illustrator 16.0.0, SVG Export Plug-In . SVG Version: 6.00 Build 0)  -->
<!DOCTYPE svg PUBLIC "-//W3C//DTD SVG 1.1//EN" "http://www.w3.org/Graphics/SVG/1.1/DTD/svg11.dtd">
<svg version="1.1" id="freecodecamp" xmlns="http://www.w3.org/2000/svg" xmlns:xlink="http://www.w3.org/1999/xlink" x="0px"
	 y="0px" width="48px" height="48px" viewBox="0 0 48 48" enable-background="new 0 0 48 48" xml:space="preserve">
<path id="logo" d="M38,6H10c-2.203,0-4,1.797-4,4v28c0,2.203,1.797,4,4,4h28c2.203,0,4-1.797,4-4V10C42,7.797,40.203,6,38,6z
	 M14.132,32.393c0.492,0.439,0.694,0.785,0.695,1.082c0,0.146-0.1,0.297-0.2,0.442c-0.096,0.098-0.296,0.202-0.441,0.202
	c-0.542,0.001-1.3-0.64-2.292-1.889c-1.928-2.361-2.8-4.972-2.849-8.53c-0.044-3.558,1.071-5.971,3.254-8.462
	c0.786-0.89,1.441-1.353,1.889-1.354c0.145-0.001,0.295,0.05,0.441,0.15c0.101,0.1,0.202,0.245,0.203,0.391
	c0,0.25-0.295,0.593-0.842,1.155c-2.278,2.192-3.423,4.879-3.417,8.119C10.584,27.282,11.789,30.161,14.132,32.393z M26.432,32.675
	c0.134-0.078,2.365-2.604,1.144-4.04c-0.055-0.054-3.546,1.055-2.893-2.822c0.438-2.566-0.399-3.748-0.399-3.748
	c-0.949,1.965-1.711,2.837-2.293,3.801c-3.038,4.958-0.807,6.59-0.493,6.787c-0.473-0.289-5.749-3.691-1.798-9.24
	c4.129-5.807,3.31-8.409,3.31-8.409c6.24,4.968,2.728,9.119,3.585,9.337c0.856,0.219,1.268-1.269,1.584-1.584
	C32.799,28.762,26.294,32.75,26.432,32.675z M36.193,32.228c-0.989,1.249-1.747,1.89-2.289,1.889
	c-0.146-0.001-0.349-0.104-0.439-0.202c-0.103-0.146-0.203-0.298-0.203-0.442c0-0.297,0.204-0.642,0.698-1.082
	c2.342-2.231,3.548-5.11,3.553-8.694c0.009-3.239-1.138-5.926-3.414-8.119c-0.546-0.562-0.84-0.902-0.84-1.154
	c0-0.146,0.099-0.291,0.202-0.392c0.146-0.101,0.297-0.15,0.442-0.149c0.443,0.001,1.1,0.464,1.886,1.354
	c2.186,2.491,3.301,4.904,3.254,8.464C38.996,27.256,38.124,29.866,36.193,32.228z"/>
</svg>
