<?xml version="1.0" encoding="utf-8"?>
<!-- Generator: Adobe Illustrator 16.0.0, SVG Export Plug-In . SVG Version: 6.00 Build 0)  -->
<!DOCTYPE svg PUBLIC "-//W3C//DTD SVG 1.1//EN" "http://www.w3.org/Graphics/SVG/1.1/DTD/svg11.dtd">
<svg version="1.1" id="Capa_1" xmlns="http://www.w3.org/2000/svg" xmlns:xlink="http://www.w3.org/1999/xlink" x="0px" y="0px"
	 width="234px" height="148px" viewBox="0 0 234 148" style="enable-background:new 0 0 234 148;" xml:space="preserve">
<g id="apertura_máxima" style="display:none;">
	<g style="display:inline;">
		<polygon style="fill:#CA1833;" points="64,123 175.5,123 216.3,76.3 		"/>
	</g>
	<g style="display:inline;">
		<polygon style="fill:#F5F5F5;" points="175.5,123 64,123 5.5,88.2 		"/>
		<path d="M22.2,94.7L145.9,120H64.8L22.2,94.7 M5.5,88.2L64,123h111.5L5.5,88.2L5.5,88.2z"/>
	</g>
</g>
<g id="apertura_media" style="display:none;">
	<g style="display:inline;">
		<polygon style="fill:#CA1833;" points="58,131.5 179.5,131.5 202,35.5 		"/>
	</g>
	<g style="display:inline;">
		<polygon style="fill:#F5F5F5;" points="179.5,131.5 58,131.5 26.5,46.5 		"/>
		<path d="M32.1,53.1l135.8,75.4H60L32.1,53.1 M26.5,46.5l31.5,85h121.5L26.5,46.5L26.5,46.5z"/>
	</g>
</g>
<g id="cierre_mínimo" style="display:none;">
	<g style="display:inline;">
		<polygon style="fill:#CA1833;" points="58,131.5 179.5,131.5 195.5,20.5 		"/>
	</g>
	<g style="display:inline;">
		<polygon style="fill:#F5F5F5;" points="179.5,131.5 58,131.5 35.5,28.5 		"/>
		<path d="M40.1,35.5l130.1,93H60.4L40.1,35.5 M35.5,28.5l22.5,103h121.5L35.5,28.5L35.5,28.5z"/>
	</g>
</g>
<g id="Inicial_1_">
	<g>
		<polygon style="fill:#CA1833;" points="45.5,146.5 189.5,146.5 189.5,2.5 		"/>
	</g>
	<g>
		<polygon style="fill:#F5F5F5;" points="189.5,146.5 45.5,146.5 45.5,2.5 		"/>
		<path d="M48.5,9.7l133.8,133.8H48.5V9.7 M45.5,2.5v144h144L45.5,2.5L45.5,2.5z"/>
	</g>
</g>
</svg>
