<svg xmlns="http://www.w3.org/2000/svg" xmlns:xlink="http://www.w3.org/1999/xlink" width="222.667" height="260.833">
  <path fill="#FCC539" d="M41.167 136.65v124.183h76.394l.272-72.333z"/>
  <linearGradient id="a" gradientUnits="userSpaceOnUse" x1="103.79" y1="155.314" x2="71.337" y2="213.015">
    <stop offset="0" stop-color="#f51e30"/>
    <stop offset=".211" stop-color="#f6263a" stop-opacity=".789"/>
    <stop offset=".571" stop-color="#fa3c56" stop-opacity=".429"/>
    <stop offset="1" stop-color="#ff5d7e" stop-opacity="0"/>
  </linearGradient>
  <path fill="url(#a)" d="M41.167 136.65v124.183h76.394l.272-72.333z"/>
  <path fill="#FF5D7E" d="M117.5 188.5H163v72.333h-45.5z"/>
  <linearGradient id="b" gradientUnits="userSpaceOnUse" x1="139.265" y1="198.564" x2="143.16" y2="217.167">
    <stop offset="0" stop-color="#f51e30"/>
    <stop offset=".228" stop-color="#f7283c" stop-opacity=".772"/>
    <stop offset=".641" stop-color="#fb425d" stop-opacity=".359"/>
    <stop offset="1" stop-color="#ff5d7e" stop-opacity="0"/>
  </linearGradient>
  <path fill="url(#b)" d="M117.5 218.037c1.551.084 3.113.131 4.685.131 14.832 0 28.755-3.781 40.814-10.398V188.5h-45.5v29.537z"/>
  <ellipse fill="#FF5D7E" cx="118" cy="106.5" rx="98" ry="99.497"/>
  <path fill="#FFF" d="M71.333 152c0 6.996-5.671 12.667-12.667 12.667C51.671 164.667 46 158.996 46 152h25.333z"/>
  <path fill="#FCC539" d="M67.358 101.167a.998.998 0 01-.903-.57c-.841-1.766-2.871-3.004-5.17-3.153-2.529-.162-4.829 1.025-6.279 3.267a.999.999 0 11-1.679-1.086c1.854-2.867 4.799-4.4 8.087-4.176 3.011.195 5.698 1.879 6.846 4.289a1 1 0 01-.902 1.429z"/>
  <circle fill="#FCC539" cx="29.167" cy="103.667" r="26"/>
  <defs>
    <circle id="c" cx="29.167" cy="103.667" r="24"/>
  </defs>
  <clipPath id="d">
    <use xlink:href="#c" overflow="visible"/>
  </clipPath>
  <circle clip-path="url(#d)" fill="#810075" cx="29.167" cy="103.667" r="24"/>
  <g clip-path="url(#d)">
    <path fill="none" d="M9.096 90.862h83.25v16.25H9.096z"/>
    <path fill="#EDFF80" d="M10.643 103.309V92.584h2.277v4.686h3.712v-4.686h2.277v10.725h-2.277v-4.884H12.92v4.884h-2.277zM23.298 103.309v-9.537H20.41v-1.188h8.052v1.188h-2.871v9.537h-2.293zM29.964 103.309l.132-10.725h2.756l3.003 7.903h.066l2.954-7.903h2.557l.116 10.725H39.32l-.115-8.118h-.05l-2.986 8.118h-1.7l-2.986-8.118h-.05l-.049 8.118h-1.42zM44.088 103.309V92.584h2.277v9.536h4.158v1.188h-6.435zM51.991 103.309V92.584h2.277v4.686h3.712v-4.686h2.277v10.725H57.98v-4.884h-3.712v4.884h-2.277zM64.647 103.309v-9.537h-2.888v-1.188h8.052v1.188H66.94v9.537h-2.293zM71.313 103.309l.132-10.725H74.2l3.003 7.903h.066l2.954-7.903h2.557l.116 10.725h-2.228l-.115-8.118h-.05l-2.986 8.118h-1.7l-2.986-8.118h-.05l-.049 8.118h-1.419zM85.437 103.309V92.584h2.277v9.536h4.158v1.188h-6.435z"/>
  </g>
  <g clip-path="url(#d)">
    <path fill="none" d="M-13.404 78.071h83.251v16.25h-83.251z"/>
    <path fill="#FF5D7E" d="M-11.084 90.016c-.906-1.041-1.359-2.468-1.359-4.28 0-1.2.206-2.253.618-3.159.412-.906 1.012-1.606 1.8-2.101.789-.494 1.724-.741 2.807-.741.541 0 1.074.068 1.597.203s.977.282 1.359.441c.382.159.573.245.573.256l-.247 1.289a10.367 10.367 0 00-1.738-.67 4.445 4.445 0 00-1.245-.194c-.659 0-1.194.147-1.606.441-.412.294-.721.776-.927 1.447-.206.67-.309 1.571-.309 2.7 0 1.659.241 2.842.724 3.548.482.706 1.229 1.059 2.241 1.059.565 0 1.062-.12 1.492-.361a4.19 4.19 0 001.042-.795c.265-.288.397-.449.397-.485l.776.848c0 .059-.156.271-.468.636-.312.364-.768.703-1.368 1.015s-1.335.468-2.206.468c-1.73-.002-3.048-.523-3.953-1.565zM-.831 91.27c-.518-.206-.903-.427-1.156-.662-.253-.235-.379-.377-.379-.424l.67-1.023c0 .023.115.132.344.326s.541.374.936.538c.394.165.85.247 1.368.247.553 0 .982-.146 1.289-.44.305-.295.459-.683.459-1.165 0-.307-.083-.574-.247-.804a2.313 2.313 0 00-.609-.582c-.242-.159-.58-.362-1.015-.609a10.41 10.41 0 01-1.394-.847 3.574 3.574 0 01-.936-1.059c-.259-.435-.388-.971-.388-1.606 0-.694.159-1.3.477-1.818a3.122 3.122 0 011.324-1.191c.564-.276 1.206-.415 1.924-.415.47 0 .915.059 1.333.176.417.118.771.25 1.059.397.288.147.432.227.432.238l-.282 1.2c-.059-.036-.203-.115-.433-.238s-.521-.244-.874-.362-.712-.177-1.077-.177c-.447 0-.806.126-1.077.379-.271.253-.406.604-.406 1.05 0 .494.159.889.477 1.183.317.294.806.618 1.465.971.588.318 1.059.606 1.412.865s.656.609.909 1.051c.253.44.379.991.379 1.649 0 .718-.179 1.336-.538 1.854a3.464 3.464 0 01-1.456 1.191c-.612.276-1.295.415-2.047.415-.778.001-1.425-.103-1.943-.308zM7.853 91.27c-.518-.206-.903-.427-1.156-.662-.253-.235-.379-.377-.379-.424l.67-1.023c0 .023.115.132.344.326s.541.374.936.538c.394.165.85.247 1.368.247.553 0 .982-.146 1.289-.44.306-.295.459-.683.459-1.165 0-.307-.083-.574-.247-.804a2.313 2.313 0 00-.609-.582c-.242-.159-.58-.362-1.015-.609a10.41 10.41 0 01-1.394-.847 3.574 3.574 0 01-.936-1.059c-.259-.435-.388-.971-.388-1.606 0-.694.159-1.3.477-1.818a3.122 3.122 0 011.324-1.191c.564-.276 1.206-.415 1.924-.415.47 0 .915.059 1.333.176.417.118.771.25 1.059.397.288.147.432.227.432.238l-.282 1.2c-.059-.036-.203-.115-.433-.238s-.521-.244-.874-.362-.712-.177-1.077-.177c-.447 0-.806.126-1.077.379-.271.253-.406.604-.406 1.05 0 .494.159.889.477 1.183.317.294.806.618 1.465.971.588.318 1.059.606 1.412.865s.656.609.909 1.051c.253.44.379.991.379 1.649 0 .718-.179 1.336-.538 1.854a3.464 3.464 0 01-1.456 1.191c-.612.276-1.295.415-2.047.415-.778.001-1.425-.103-1.943-.308zM16.449 90.016c-.906-1.041-1.359-2.468-1.359-4.28 0-1.2.206-2.253.618-3.159.412-.906 1.012-1.606 1.8-2.101.789-.494 1.724-.741 2.807-.741.541 0 1.074.068 1.597.203s.977.282 1.359.441c.382.159.573.245.573.256l-.247 1.289a10.367 10.367 0 00-1.738-.67 4.445 4.445 0 00-1.245-.194c-.659 0-1.194.147-1.606.441-.412.294-.721.776-.927 1.447-.206.67-.309 1.571-.309 2.7 0 1.659.241 2.842.724 3.548.482.706 1.229 1.059 2.241 1.059.565 0 1.062-.12 1.492-.361a4.19 4.19 0 001.042-.795c.265-.288.397-.449.397-.485l.776.848c0 .059-.156.271-.468.636-.312.364-.768.703-1.368 1.015s-1.335.468-2.206.468c-1.73-.002-3.048-.523-3.953-1.565zM26.703 91.27c-.518-.206-.903-.427-1.156-.662-.253-.235-.379-.377-.379-.424l.67-1.023c0 .023.115.132.344.326s.541.374.936.538c.394.165.85.247 1.368.247.553 0 .982-.146 1.289-.44.306-.295.459-.683.459-1.165 0-.307-.083-.574-.247-.804a2.313 2.313 0 00-.609-.582c-.242-.159-.58-.362-1.015-.609a10.41 10.41 0 01-1.394-.847 3.574 3.574 0 01-.936-1.059c-.259-.435-.388-.971-.388-1.606 0-.694.159-1.3.477-1.818a3.122 3.122 0 011.324-1.191c.564-.276 1.206-.415 1.924-.415.47 0 .915.059 1.333.176.417.118.771.25 1.059.397.288.147.432.227.432.238l-.282 1.2c-.059-.036-.203-.115-.433-.238s-.521-.244-.874-.362-.712-.177-1.077-.177c-.447 0-.806.126-1.077.379-.271.253-.406.604-.406 1.05 0 .494.159.889.477 1.183.317.294.806.618 1.465.971.588.318 1.059.606 1.412.865s.656.609.909 1.051c.253.44.379.991.379 1.649 0 .718-.179 1.336-.538 1.854a3.464 3.464 0 01-1.456 1.191c-.612.276-1.295.415-2.047.415-.778.001-1.426-.103-1.943-.308zM35.386 91.27c-.518-.206-.903-.427-1.156-.662-.253-.235-.379-.377-.379-.424l.67-1.023c0 .023.115.132.344.326s.541.374.936.538c.394.165.85.247 1.368.247.553 0 .982-.146 1.289-.44.306-.295.459-.683.459-1.165 0-.307-.083-.574-.247-.804a2.313 2.313 0 00-.609-.582c-.242-.159-.58-.362-1.015-.609a10.41 10.41 0 01-1.394-.847 3.574 3.574 0 01-.936-1.059c-.259-.435-.388-.971-.388-1.606 0-.694.159-1.3.477-1.818a3.122 3.122 0 011.324-1.191c.564-.276 1.206-.415 1.924-.415.47 0 .915.059 1.333.176.417.118.771.25 1.059.397.288.147.432.227.432.238l-.282 1.2c-.059-.036-.203-.115-.433-.238s-.521-.244-.874-.362-.712-.177-1.077-.177c-.447 0-.806.126-1.077.379-.271.253-.406.604-.406 1.05 0 .494.159.889.477 1.183.317.294.806.618 1.465.971.588.318 1.059.606 1.412.865s.656.609.909 1.051c.253.44.379.991.379 1.649 0 .718-.179 1.336-.538 1.854a3.464 3.464 0 01-1.456 1.191c-.612.276-1.295.415-2.047.415-.778.001-1.425-.103-1.943-.308zM43.982 90.016c-.906-1.041-1.359-2.468-1.359-4.28 0-1.2.206-2.253.618-3.159.412-.906 1.012-1.606 1.8-2.101.789-.494 1.724-.741 2.807-.741.541 0 1.074.068 1.597.203s.977.282 1.359.441c.382.159.573.245.573.256l-.247 1.289a10.367 10.367 0 00-1.738-.67 4.445 4.445 0 00-1.245-.194c-.659 0-1.194.147-1.606.441-.412.294-.721.776-.927 1.447-.206.67-.309 1.571-.309 2.7 0 1.659.241 2.842.724 3.548.482.706 1.229 1.059 2.241 1.059.565 0 1.062-.12 1.492-.361a4.19 4.19 0 001.042-.795c.265-.288.397-.449.397-.485l.776.848c0 .059-.156.271-.468.636-.312.364-.768.703-1.368 1.015s-1.335.468-2.206.468c-1.729-.002-3.047-.523-3.953-1.565zM54.236 91.27c-.518-.206-.903-.427-1.156-.662-.253-.235-.379-.377-.379-.424l.67-1.023c0 .023.115.132.344.326s.541.374.936.538c.394.165.85.247 1.368.247.553 0 .982-.146 1.289-.44.306-.295.459-.683.459-1.165 0-.307-.083-.574-.247-.804a2.313 2.313 0 00-.609-.582c-.242-.159-.58-.362-1.015-.609a10.41 10.41 0 01-1.394-.847 3.574 3.574 0 01-.936-1.059c-.259-.435-.388-.971-.388-1.606 0-.694.159-1.3.477-1.818a3.122 3.122 0 011.324-1.191c.564-.276 1.206-.415 1.924-.415.47 0 .915.059 1.333.176.417.118.771.25 1.059.397.288.147.432.227.432.238l-.282 1.2c-.059-.036-.203-.115-.433-.238s-.521-.244-.874-.362-.712-.177-1.077-.177c-.447 0-.806.126-1.077.379-.271.253-.406.604-.406 1.05 0 .494.159.889.477 1.183.317.294.806.618 1.465.971.588.318 1.059.606 1.412.865s.656.609.909 1.051c.253.44.379.991.379 1.649 0 .718-.179 1.336-.538 1.854a3.464 3.464 0 01-1.456 1.191c-.612.276-1.295.415-2.047.415-.778.001-1.426-.103-1.943-.308zM62.919 91.27c-.518-.206-.903-.427-1.156-.662-.253-.235-.379-.377-.379-.424l.67-1.023c0 .023.115.132.344.326s.541.374.936.538c.394.165.85.247 1.368.247.553 0 .982-.146 1.289-.44.306-.295.459-.683.459-1.165 0-.307-.083-.574-.247-.804a2.313 2.313 0 00-.609-.582c-.242-.159-.58-.362-1.015-.609a10.41 10.41 0 01-1.394-.847 3.574 3.574 0 01-.936-1.059c-.259-.435-.388-.971-.388-1.606 0-.694.159-1.3.477-1.818a3.122 3.122 0 011.324-1.191c.564-.276 1.206-.415 1.924-.415.47 0 .915.059 1.333.176.417.118.771.25 1.059.397.288.147.432.227.432.238l-.282 1.2c-.059-.036-.203-.115-.433-.238s-.521-.244-.874-.362-.712-.177-1.077-.177c-.447 0-.806.126-1.077.379-.271.253-.406.604-.406 1.05 0 .494.159.889.477 1.183.317.294.806.618 1.465.971.588.318 1.059.606 1.412.865s.656.609.909 1.051c.253.44.379.991.379 1.649 0 .718-.179 1.336-.538 1.854a3.464 3.464 0 01-1.456 1.191c-.612.276-1.295.415-2.047.415-.778.001-1.425-.103-1.943-.308z"/>
  </g>
  <g clip-path="url(#d)">
    <path fill="none" d="M-14.029 102.571h84.5v14.414h-84.5z"/>
    <path fill="#FCC539" d="M-11.482 114.948c-.486-.193-.847-.4-1.084-.621s-.355-.353-.355-.396l.629-.96c0 .021.107.124.323.306.215.183.507.351.877.505s.797.231 1.283.231c.519 0 .921-.138 1.208-.413.287-.276.43-.64.43-1.093a1.26 1.26 0 00-.231-.753 2.168 2.168 0 00-.571-.546c-.227-.149-.544-.34-.952-.571a9.75 9.75 0 01-1.308-.794 3.338 3.338 0 01-.877-.993c-.243-.408-.364-.91-.364-1.506 0-.651.149-1.22.447-1.705s.711-.857 1.241-1.117c.53-.259 1.131-.389 1.804-.389.441 0 .857.056 1.25.165.391.11.722.234.993.373.271.138.406.212.406.223l-.265 1.126c-.055-.033-.19-.107-.405-.224s-.488-.229-.819-.339-.667-.166-1.009-.166c-.419 0-.756.119-1.01.356s-.38.565-.38.984c0 .463.149.833.447 1.108.298.276.755.579 1.374.91.552.298.993.568 1.324.812.331.242.615.571.853.984.237.414.356.93.356 1.548 0 .673-.168 1.252-.505 1.737a3.25 3.25 0 01-1.365 1.117c-.574.259-1.214.389-1.92.389-.733.001-1.34-.096-1.825-.288zM-1.917 115.055l-3.227-10.758h2.417l2.548 9.086h.05l2.764-9.086h1.44L.616 115.055h-2.533zM5.796 113.781c-.805-.971-1.208-2.328-1.208-4.071s.436-3.108 1.308-4.096 2.091-1.481 3.658-1.481c.507 0 1.009.063 1.506.19s.924.265 1.283.413c.358.149.538.229.538.24l-.248 1.208a9.311 9.311 0 00-1.614-.629 4.17 4.17 0 00-1.167-.182c-.685 0-1.225.146-1.622.438s-.684.753-.861 1.382c-.176.629-.265 1.473-.265 2.532 0 1.501.215 2.588.646 3.261s1.048 1.009 1.854 1.009c.596 0 1.026-.159 1.291-.479s.436-.656.513-1.01v-2.002H9.735v-1.126h3.608v5.677h-.993l-.58-.943a2.83 2.83 0 01-1.018.811c-.425.21-.941.314-1.547.314-1.467 0-2.603-.486-3.409-1.456zM16.289 114.948c-.486-.193-.847-.4-1.084-.621s-.355-.353-.355-.396l.629-.96c0 .021.107.124.323.306.215.183.507.351.877.505s.797.231 1.283.231c.519 0 .921-.138 1.208-.413.287-.276.43-.64.43-1.093a1.26 1.26 0 00-.231-.753 2.168 2.168 0 00-.571-.546c-.227-.149-.544-.34-.952-.571a9.75 9.75 0 01-1.308-.794 3.338 3.338 0 01-.877-.993c-.243-.408-.364-.91-.364-1.506 0-.651.149-1.22.447-1.705s.711-.857 1.241-1.117c.53-.259 1.131-.389 1.804-.389.441 0 .857.056 1.25.165.391.11.722.234.993.373.271.138.406.212.406.223l-.265 1.126c-.055-.033-.19-.107-.405-.224s-.488-.229-.819-.339-.667-.166-1.009-.166c-.419 0-.756.119-1.01.356s-.38.565-.38.984c0 .463.149.833.447 1.108.298.276.755.579 1.374.91.552.298.993.568 1.324.812.331.242.615.571.853.984.237.414.356.93.356 1.548 0 .673-.168 1.252-.505 1.737a3.25 3.25 0 01-1.365 1.117c-.574.259-1.214.389-1.92.389-.733.001-1.34-.096-1.825-.288zM25.854 115.055l-3.227-10.758h2.417l2.548 9.086h.05l2.764-9.086h1.44l-3.459 10.758h-2.533zM33.566 113.781c-.805-.971-1.208-2.328-1.208-4.071s.436-3.108 1.308-4.096 2.091-1.481 3.658-1.481c.507 0 1.009.063 1.506.19s.924.265 1.283.413c.358.149.538.229.538.24l-.248 1.208a9.311 9.311 0 00-1.614-.629 4.17 4.17 0 00-1.167-.182c-.685 0-1.225.146-1.622.438s-.684.753-.861 1.382c-.176.629-.265 1.473-.265 2.532 0 1.501.215 2.588.646 3.261s1.048 1.009 1.854 1.009c.596 0 1.026-.159 1.291-.479s.436-.656.513-1.01v-2.002h-1.672v-1.126h3.608v5.677h-.993l-.58-.943a2.83 2.83 0 01-1.018.811c-.425.21-.941.314-1.547.314-1.468 0-2.604-.486-3.41-1.456zM44.06 114.948c-.486-.193-.847-.4-1.084-.621s-.355-.353-.355-.396l.629-.96c0 .021.107.124.323.306.215.183.507.351.877.505s.797.231 1.283.231c.519 0 .921-.138 1.208-.413.287-.276.43-.64.43-1.093a1.26 1.26 0 00-.231-.753 2.168 2.168 0 00-.571-.546c-.227-.149-.544-.34-.952-.571a9.75 9.75 0 01-1.308-.794 3.338 3.338 0 01-.877-.993c-.243-.408-.364-.91-.364-1.506 0-.651.149-1.22.447-1.705s.711-.857 1.241-1.117c.53-.259 1.131-.389 1.804-.389.441 0 .857.056 1.25.165.391.11.722.234.993.373.271.138.406.212.406.223l-.265 1.126c-.055-.033-.19-.107-.405-.224s-.488-.229-.819-.339-.667-.166-1.009-.166c-.419 0-.756.119-1.01.356s-.38.565-.38.984c0 .463.149.833.447 1.108.298.276.755.579 1.374.91.552.298.993.568 1.324.812.331.242.615.571.853.984.237.414.356.93.356 1.548 0 .673-.168 1.252-.505 1.737a3.25 3.25 0 01-1.365 1.117c-.574.259-1.214.389-1.92.389-.733.001-1.34-.096-1.825-.288zM53.625 115.055l-3.227-10.758h2.417l2.548 9.086h.05l2.764-9.086h1.44l-3.459 10.758h-2.533zM61.337 113.781c-.805-.971-1.208-2.328-1.208-4.071s.436-3.108 1.308-4.096 2.091-1.481 3.658-1.481c.507 0 1.009.063 1.506.19s.924.265 1.283.413c.358.149.538.229.538.24l-.248 1.208a9.311 9.311 0 00-1.614-.629 4.17 4.17 0 00-1.167-.182c-.685 0-1.225.146-1.622.438s-.684.753-.861 1.382c-.176.629-.265 1.473-.265 2.532 0 1.501.215 2.588.646 3.261s1.048 1.009 1.854 1.009c.596 0 1.026-.159 1.291-.479s.436-.656.513-1.01v-2.002h-1.672v-1.126h3.608v5.677h-.993l-.58-.943a2.83 2.83 0 01-1.018.811c-.425.21-.941.314-1.547.314-1.468 0-2.604-.486-3.41-1.456z"/>
  </g>
  <g clip-path="url(#d)">
    <path fill="none" d="M-73.817 90.862h83.25v16.25h-83.25z"/>
    <path fill="#EDFF80" d="M-72.271 103.309V92.584h2.277v4.686h3.712v-4.686h2.277v10.725h-2.277v-4.884h-3.712v4.884h-2.277zM-59.615 103.309v-9.537h-2.888v-1.188h8.052v1.188h-2.871v9.537h-2.293zM-52.949 103.309l.132-10.725h2.756l3.003 7.903h.066l2.954-7.903h2.557l.116 10.725h-2.228l-.115-8.118h-.05l-2.986 8.118h-1.7l-2.986-8.118h-.05l-.049 8.118h-1.42zM-38.825 103.309V92.584h2.277v9.536h4.158v1.188h-6.435zM-30.922 103.309V92.584h2.277v4.686h3.712v-4.686h2.277v10.725h-2.277v-4.884h-3.712v4.884h-2.277zM-18.266 103.309v-9.537h-2.888v-1.188h8.052v1.188h-2.871v9.537h-2.293zM-11.601 103.309l.132-10.725h2.756l3.003 7.903h.066l2.954-7.903h2.557l.116 10.725h-2.228l-.115-8.118h-.05l-2.986 8.118h-1.7l-2.986-8.118h-.05l-.049 8.118h-1.42zM2.523 103.309V92.584H4.8v9.536h4.158v1.188H2.523z"/>
  </g>
  <g clip-path="url(#d)">
    <path fill="none" d="M-13.404 114.212h83.251v16.25h-83.251z"/>
    <path fill="#FF5D7E" d="M-11.084 126.159c-.906-1.041-1.359-2.468-1.359-4.28 0-1.2.206-2.253.618-3.159.412-.905 1.012-1.605 1.8-2.1.789-.495 1.724-.742 2.807-.742.541 0 1.074.068 1.597.203.523.136.977.282 1.359.441.382.159.573.244.573.256l-.247 1.289a10.175 10.175 0 00-1.738-.67 4.409 4.409 0 00-1.245-.194c-.659 0-1.194.147-1.606.441-.412.294-.721.776-.927 1.447s-.309 1.57-.309 2.7c0 1.659.241 2.842.724 3.548.482.706 1.229 1.059 2.241 1.059.565 0 1.062-.12 1.492-.361a4.19 4.19 0 001.042-.795c.265-.288.397-.449.397-.485l.776.848c0 .059-.156.271-.468.636-.312.364-.768.703-1.368 1.015s-1.335.468-2.206.468c-1.73-.003-3.048-.523-3.953-1.565zM-.831 127.413c-.518-.206-.903-.427-1.156-.662-.253-.235-.379-.377-.379-.424l.67-1.023c0 .023.115.132.344.326s.541.374.936.538c.394.165.85.247 1.368.247.553 0 .982-.146 1.289-.44.306-.295.459-.683.459-1.165 0-.307-.083-.574-.247-.804a2.313 2.313 0 00-.609-.582c-.242-.159-.58-.362-1.015-.609a10.41 10.41 0 01-1.394-.847 3.566 3.566 0 01-.936-1.06c-.259-.435-.388-.971-.388-1.605 0-.694.159-1.301.477-1.818a3.122 3.122 0 011.324-1.191c.564-.276 1.206-.415 1.924-.415.47 0 .915.06 1.333.177.417.118.771.25 1.059.397.288.147.432.227.432.238l-.282 1.2a14.182 14.182 0 00-.433-.238 5.595 5.595 0 00-.874-.362 3.403 3.403 0 00-1.077-.176c-.447 0-.806.126-1.077.379-.271.253-.406.604-.406 1.051 0 .494.159.888.477 1.182.317.295.806.618 1.465.972.588.317 1.059.605 1.412.864s.656.609.909 1.051c.253.44.379.991.379 1.649 0 .718-.179 1.336-.538 1.854a3.464 3.464 0 01-1.456 1.191c-.612.276-1.295.415-2.047.415-.778-.002-1.425-.105-1.943-.31zM7.853 127.413c-.518-.206-.903-.427-1.156-.662-.253-.235-.379-.377-.379-.424l.67-1.023c0 .023.115.132.344.326s.541.374.936.538c.394.165.85.247 1.368.247.553 0 .982-.146 1.289-.44.306-.295.459-.683.459-1.165 0-.307-.083-.574-.247-.804a2.313 2.313 0 00-.609-.582c-.242-.159-.58-.362-1.015-.609a10.41 10.41 0 01-1.394-.847 3.566 3.566 0 01-.936-1.06c-.259-.435-.388-.971-.388-1.605 0-.694.159-1.301.477-1.818a3.122 3.122 0 011.324-1.191c.564-.276 1.206-.415 1.924-.415.47 0 .915.06 1.333.177.417.118.771.25 1.059.397.288.147.432.227.432.238l-.282 1.2a14.182 14.182 0 00-.433-.238 5.595 5.595 0 00-.874-.362 3.403 3.403 0 00-1.077-.176c-.447 0-.806.126-1.077.379-.271.253-.406.604-.406 1.051 0 .494.159.888.477 1.182.317.295.806.618 1.465.972.588.317 1.059.605 1.412.864s.656.609.909 1.051c.253.44.379.991.379 1.649 0 .718-.179 1.336-.538 1.854a3.464 3.464 0 01-1.456 1.191c-.612.276-1.295.415-2.047.415-.778-.002-1.425-.105-1.943-.31zM16.449 126.159c-.906-1.041-1.359-2.468-1.359-4.28 0-1.2.206-2.253.618-3.159.412-.905 1.012-1.605 1.8-2.1.789-.495 1.724-.742 2.807-.742.541 0 1.074.068 1.597.203.523.136.977.282 1.359.441.382.159.573.244.573.256l-.247 1.289a10.175 10.175 0 00-1.738-.67 4.409 4.409 0 00-1.245-.194c-.659 0-1.194.147-1.606.441-.412.294-.721.776-.927 1.447s-.309 1.57-.309 2.7c0 1.659.241 2.842.724 3.548.482.706 1.229 1.059 2.241 1.059.565 0 1.062-.12 1.492-.361a4.19 4.19 0 001.042-.795c.265-.288.397-.449.397-.485l.776.848c0 .059-.156.271-.468.636-.312.364-.768.703-1.368 1.015s-1.335.468-2.206.468c-1.73-.003-3.048-.523-3.953-1.565zM26.703 127.413c-.518-.206-.903-.427-1.156-.662-.253-.235-.379-.377-.379-.424l.67-1.023c0 .023.115.132.344.326s.541.374.936.538c.394.165.85.247 1.368.247.553 0 .982-.146 1.289-.44.306-.295.459-.683.459-1.165 0-.307-.083-.574-.247-.804a2.313 2.313 0 00-.609-.582c-.242-.159-.58-.362-1.015-.609a10.41 10.41 0 01-1.394-.847 3.566 3.566 0 01-.936-1.06c-.259-.435-.388-.971-.388-1.605 0-.694.159-1.301.477-1.818a3.122 3.122 0 011.324-1.191c.564-.276 1.206-.415 1.924-.415.47 0 .915.06 1.333.177.417.118.771.25 1.059.397.288.147.432.227.432.238l-.282 1.2a14.182 14.182 0 00-.433-.238 5.595 5.595 0 00-.874-.362 3.403 3.403 0 00-1.077-.176c-.447 0-.806.126-1.077.379-.271.253-.406.604-.406 1.051 0 .494.159.888.477 1.182.317.295.806.618 1.465.972.588.317 1.059.605 1.412.864s.656.609.909 1.051c.253.44.379.991.379 1.649 0 .718-.179 1.336-.538 1.854a3.464 3.464 0 01-1.456 1.191c-.612.276-1.295.415-2.047.415-.778-.002-1.426-.105-1.943-.31zM35.386 127.413c-.518-.206-.903-.427-1.156-.662-.253-.235-.379-.377-.379-.424l.67-1.023c0 .023.115.132.344.326s.541.374.936.538c.394.165.85.247 1.368.247.553 0 .982-.146 1.289-.44.306-.295.459-.683.459-1.165 0-.307-.083-.574-.247-.804a2.313 2.313 0 00-.609-.582c-.242-.159-.58-.362-1.015-.609a10.41 10.41 0 01-1.394-.847 3.566 3.566 0 01-.936-1.06c-.259-.435-.388-.971-.388-1.605 0-.694.159-1.301.477-1.818a3.122 3.122 0 011.324-1.191c.564-.276 1.206-.415 1.924-.415.47 0 .915.06 1.333.177.417.118.771.25 1.059.397.288.147.432.227.432.238l-.282 1.2a14.182 14.182 0 00-.433-.238 5.595 5.595 0 00-.874-.362 3.403 3.403 0 00-1.077-.176c-.447 0-.806.126-1.077.379-.271.253-.406.604-.406 1.051 0 .494.159.888.477 1.182.317.295.806.618 1.465.972.588.317 1.059.605 1.412.864s.656.609.909 1.051c.253.44.379.991.379 1.649 0 .718-.179 1.336-.538 1.854a3.464 3.464 0 01-1.456 1.191c-.612.276-1.295.415-2.047.415-.778-.002-1.425-.105-1.943-.31zM43.982 126.159c-.906-1.041-1.359-2.468-1.359-4.28 0-1.2.206-2.253.618-3.159.412-.905 1.012-1.605 1.8-2.1.789-.495 1.724-.742 2.807-.742.541 0 1.074.068 1.597.203.523.136.977.282 1.359.441.382.159.573.244.573.256l-.247 1.289a10.175 10.175 0 00-1.738-.67 4.409 4.409 0 00-1.245-.194c-.659 0-1.194.147-1.606.441-.412.294-.721.776-.927 1.447s-.309 1.57-.309 2.7c0 1.659.241 2.842.724 3.548.482.706 1.229 1.059 2.241 1.059.565 0 1.062-.12 1.492-.361a4.19 4.19 0 001.042-.795c.265-.288.397-.449.397-.485l.776.848c0 .059-.156.271-.468.636-.312.364-.768.703-1.368 1.015s-1.335.468-2.206.468c-1.729-.003-3.047-.523-3.953-1.565zM54.236 127.413c-.518-.206-.903-.427-1.156-.662-.253-.235-.379-.377-.379-.424l.67-1.023c0 .023.115.132.344.326s.541.374.936.538c.394.165.85.247 1.368.247.553 0 .982-.146 1.289-.44.306-.295.459-.683.459-1.165 0-.307-.083-.574-.247-.804a2.313 2.313 0 00-.609-.582c-.242-.159-.58-.362-1.015-.609a10.41 10.41 0 01-1.394-.847 3.566 3.566 0 01-.936-1.06c-.259-.435-.388-.971-.388-1.605 0-.694.159-1.301.477-1.818a3.122 3.122 0 011.324-1.191c.564-.276 1.206-.415 1.924-.415.47 0 .915.06 1.333.177.417.118.771.25 1.059.397.288.147.432.227.432.238l-.282 1.2a14.182 14.182 0 00-.433-.238 5.595 5.595 0 00-.874-.362 3.403 3.403 0 00-1.077-.176c-.447 0-.806.126-1.077.379-.271.253-.406.604-.406 1.051 0 .494.159.888.477 1.182.317.295.806.618 1.465.972.588.317 1.059.605 1.412.864s.656.609.909 1.051c.253.44.379.991.379 1.649 0 .718-.179 1.336-.538 1.854a3.464 3.464 0 01-1.456 1.191c-.612.276-1.295.415-2.047.415-.778-.002-1.426-.105-1.943-.31zM62.919 127.413c-.518-.206-.903-.427-1.156-.662-.253-.235-.379-.377-.379-.424l.67-1.023c0 .023.115.132.344.326s.541.374.936.538c.394.165.85.247 1.368.247.553 0 .982-.146 1.289-.44.306-.295.459-.683.459-1.165 0-.307-.083-.574-.247-.804a2.313 2.313 0 00-.609-.582c-.242-.159-.58-.362-1.015-.609a10.41 10.41 0 01-1.394-.847 3.566 3.566 0 01-.936-1.06c-.259-.435-.388-.971-.388-1.605 0-.694.159-1.301.477-1.818a3.122 3.122 0 011.324-1.191c.564-.276 1.206-.415 1.924-.415.47 0 .915.06 1.333.177.417.118.771.25 1.059.397.288.147.432.227.432.238l-.282 1.2a14.182 14.182 0 00-.433-.238 5.595 5.595 0 00-.874-.362 3.403 3.403 0 00-1.077-.176c-.447 0-.806.126-1.077.379-.271.253-.406.604-.406 1.051 0 .494.159.888.477 1.182.317.295.806.618 1.465.972.588.317 1.059.605 1.412.864s.656.609.909 1.051c.253.44.379.991.379 1.649 0 .718-.179 1.336-.538 1.854a3.464 3.464 0 01-1.456 1.191c-.612.276-1.295.415-2.047.415-.778-.002-1.425-.105-1.943-.31z"/>
  </g>
  <g clip-path="url(#d)">
    <path fill="none" d="M9.096 90.862h83.25v16.25H9.096z"/>
    <path fill="#EDFF80" d="M10.643 103.309V92.584h2.277v4.686h3.712v-4.686h2.277v10.725h-2.277v-4.884H12.92v4.884h-2.277zM23.298 103.309v-9.537H20.41v-1.188h8.052v1.188h-2.871v9.537h-2.293zM29.964 103.309l.132-10.725h2.756l3.003 7.903h.066l2.954-7.903h2.557l.116 10.725H39.32l-.115-8.118h-.05l-2.986 8.118h-1.7l-2.986-8.118h-.05l-.049 8.118h-1.42zM44.088 103.309V92.584h2.277v9.536h4.158v1.188h-6.435zM51.991 103.309V92.584h2.277v4.686h3.712v-4.686h2.277v10.725H57.98v-4.884h-3.712v4.884h-2.277zM64.647 103.309v-9.537h-2.888v-1.188h8.052v1.188H66.94v9.537h-2.293zM71.313 103.309l.132-10.725H74.2l3.003 7.903h.066l2.954-7.903h2.557l.116 10.725h-2.228l-.115-8.118h-.05l-2.986 8.118h-1.7l-2.986-8.118h-.05l-.049 8.118h-1.419zM85.437 103.309V92.584h2.277v9.536h4.158v1.188h-6.435z"/>
  </g>
  <g clip-path="url(#d)">
    <path fill="none" d="M-14.029 102.572h84.5v14.413h-84.5z"/>
    <path fill="#FCC539" d="M-11.482 114.948c-.486-.193-.847-.4-1.084-.621s-.355-.353-.355-.396l.629-.96c0 .021.107.124.323.306.215.183.507.351.877.505s.797.231 1.283.231c.519 0 .921-.138 1.208-.413.287-.276.43-.64.43-1.093a1.26 1.26 0 00-.231-.753 2.168 2.168 0 00-.571-.546c-.227-.149-.544-.34-.952-.571a9.75 9.75 0 01-1.308-.794 3.338 3.338 0 01-.877-.993c-.243-.408-.364-.91-.364-1.506 0-.651.149-1.22.447-1.705s.711-.857 1.241-1.117c.53-.259 1.131-.389 1.804-.389.441 0 .857.056 1.25.165.391.11.722.234.993.373.271.138.406.212.406.223l-.265 1.126c-.055-.033-.19-.107-.405-.224s-.488-.229-.819-.339-.667-.166-1.009-.166c-.419 0-.756.119-1.01.356s-.38.565-.38.984c0 .463.149.833.447 1.108.298.276.755.579 1.374.91.552.298.993.568 1.324.812.331.242.615.571.853.984.237.414.356.93.356 1.548 0 .673-.168 1.252-.505 1.737a3.25 3.25 0 01-1.365 1.117c-.574.259-1.214.389-1.92.389-.733.001-1.34-.096-1.825-.288zM-1.917 115.055l-3.227-10.758h2.417l2.548 9.086h.05l2.764-9.086h1.44L.616 115.055h-2.533zM5.796 113.781c-.805-.971-1.208-2.328-1.208-4.071s.436-3.108 1.308-4.096 2.091-1.481 3.658-1.481c.507 0 1.009.063 1.506.19s.924.265 1.283.413c.358.149.538.229.538.24l-.248 1.208a9.311 9.311 0 00-1.614-.629 4.17 4.17 0 00-1.167-.182c-.685 0-1.225.146-1.622.438s-.684.753-.861 1.382c-.176.629-.265 1.473-.265 2.532 0 1.501.215 2.588.646 3.261s1.048 1.009 1.854 1.009c.596 0 1.026-.159 1.291-.479s.436-.656.513-1.01v-2.002H9.735v-1.126h3.608v5.677h-.993l-.58-.943a2.83 2.83 0 01-1.018.811c-.425.21-.941.314-1.547.314-1.467 0-2.603-.486-3.409-1.456zM16.289 114.948c-.486-.193-.847-.4-1.084-.621s-.355-.353-.355-.396l.629-.96c0 .021.107.124.323.306.215.183.507.351.877.505s.797.231 1.283.231c.519 0 .921-.138 1.208-.413.287-.276.43-.64.43-1.093a1.26 1.26 0 00-.231-.753 2.168 2.168 0 00-.571-.546c-.227-.149-.544-.34-.952-.571a9.75 9.75 0 01-1.308-.794 3.338 3.338 0 01-.877-.993c-.243-.408-.364-.91-.364-1.506 0-.651.149-1.22.447-1.705s.711-.857 1.241-1.117c.53-.259 1.131-.389 1.804-.389.441 0 .857.056 1.25.165.391.11.722.234.993.373.271.138.406.212.406.223l-.265 1.126c-.055-.033-.19-.107-.405-.224s-.488-.229-.819-.339-.667-.166-1.009-.166c-.419 0-.756.119-1.01.356s-.38.565-.38.984c0 .463.149.833.447 1.108.298.276.755.579 1.374.91.552.298.993.568 1.324.812.331.242.615.571.853.984.237.414.356.93.356 1.548 0 .673-.168 1.252-.505 1.737a3.25 3.25 0 01-1.365 1.117c-.574.259-1.214.389-1.92.389-.733.001-1.34-.096-1.825-.288zM25.854 115.055l-3.227-10.758h2.417l2.548 9.086h.05l2.764-9.086h1.44l-3.459 10.758h-2.533zM33.566 113.781c-.805-.971-1.208-2.328-1.208-4.071s.436-3.108 1.308-4.096 2.091-1.481 3.658-1.481c.507 0 1.009.063 1.506.19s.924.265 1.283.413c.358.149.538.229.538.24l-.248 1.208a9.311 9.311 0 00-1.614-.629 4.17 4.17 0 00-1.167-.182c-.685 0-1.225.146-1.622.438s-.684.753-.861 1.382c-.176.629-.265 1.473-.265 2.532 0 1.501.215 2.588.646 3.261s1.048 1.009 1.854 1.009c.596 0 1.026-.159 1.291-.479s.436-.656.513-1.01v-2.002h-1.672v-1.126h3.608v5.677h-.993l-.58-.943a2.83 2.83 0 01-1.018.811c-.425.21-.941.314-1.547.314-1.468 0-2.604-.486-3.41-1.456zM44.06 114.948c-.486-.193-.847-.4-1.084-.621s-.355-.353-.355-.396l.629-.96c0 .021.107.124.323.306.215.183.507.351.877.505s.797.231 1.283.231c.519 0 .921-.138 1.208-.413.287-.276.43-.64.43-1.093a1.26 1.26 0 00-.231-.753 2.168 2.168 0 00-.571-.546c-.227-.149-.544-.34-.952-.571a9.75 9.75 0 01-1.308-.794 3.338 3.338 0 01-.877-.993c-.243-.408-.364-.91-.364-1.506 0-.651.149-1.22.447-1.705s.711-.857 1.241-1.117c.53-.259 1.131-.389 1.804-.389.441 0 .857.056 1.25.165.391.11.722.234.993.373.271.138.406.212.406.223l-.265 1.126c-.055-.033-.19-.107-.405-.224s-.488-.229-.819-.339-.667-.166-1.009-.166c-.419 0-.756.119-1.01.356s-.38.565-.38.984c0 .463.149.833.447 1.108.298.276.755.579 1.374.91.552.298.993.568 1.324.812.331.242.615.571.853.984.237.414.356.93.356 1.548 0 .673-.168 1.252-.505 1.737a3.25 3.25 0 01-1.365 1.117c-.574.259-1.214.389-1.92.389-.733.001-1.34-.096-1.825-.288zM53.625 115.055l-3.227-10.758h2.417l2.548 9.086h.05l2.764-9.086h1.44l-3.459 10.758h-2.533zM61.337 113.781c-.805-.971-1.208-2.328-1.208-4.071s.436-3.108 1.308-4.096 2.091-1.481 3.658-1.481c.507 0 1.009.063 1.506.19s.924.265 1.283.413c.358.149.538.229.538.24l-.248 1.208a9.311 9.311 0 00-1.614-.629 4.17 4.17 0 00-1.167-.182c-.685 0-1.225.146-1.622.438s-.684.753-.861 1.382c-.176.629-.265 1.473-.265 2.532 0 1.501.215 2.588.646 3.261s1.048 1.009 1.854 1.009c.596 0 1.026-.159 1.291-.479s.436-.656.513-1.01v-2.002h-1.672v-1.126h3.608v5.677h-.993l-.58-.943a2.83 2.83 0 01-1.018.811c-.425.21-.941.314-1.547.314-1.468 0-2.604-.486-3.41-1.456z"/>
  </g>
  <circle fill="#FCC539" cx="92.358" cy="103.667" r="26"/>
  <circle fill="#FFF" cx="92.358" cy="103.667" r="24"/>
  <defs>
    <circle id="e" cx="92.358" cy="103.667" r="24"/>
  </defs>
  <clipPath id="f">
    <use xlink:href="#e" overflow="visible"/>
  </clipPath>
  <circle clip-path="url(#f)" fill="#810075" cx="92.358" cy="103.667" r="24"/>
  <g clip-path="url(#f)">
    <path fill="none" d="M50.009 114.212h83.251v16.25H50.009z"/>
    <path fill="#FF5D7E" d="M52.329 126.159c-.906-1.041-1.359-2.468-1.359-4.28 0-1.2.206-2.253.618-3.159.412-.905 1.012-1.605 1.8-2.1.789-.495 1.724-.742 2.807-.742.541 0 1.074.068 1.597.203.523.136.977.282 1.359.441.382.159.573.244.573.256l-.247 1.289a10.175 10.175 0 00-1.738-.67 4.409 4.409 0 00-1.245-.194c-.659 0-1.194.147-1.606.441-.412.294-.721.776-.927 1.447s-.309 1.57-.309 2.7c0 1.659.241 2.842.724 3.548.482.706 1.229 1.059 2.241 1.059.565 0 1.062-.12 1.492-.361a4.19 4.19 0 001.042-.795c.265-.288.397-.449.397-.485l.776.848c0 .059-.156.271-.468.636-.312.364-.768.703-1.368 1.015s-1.335.468-2.206.468c-1.73-.003-3.048-.523-3.953-1.565zM62.583 127.413c-.518-.206-.903-.427-1.156-.662-.253-.235-.379-.377-.379-.424l.67-1.023c0 .023.115.132.344.326s.541.374.936.538c.394.165.85.247 1.368.247.553 0 .982-.146 1.289-.44.306-.295.459-.683.459-1.165 0-.307-.083-.574-.247-.804a2.313 2.313 0 00-.609-.582c-.242-.159-.58-.362-1.015-.609a10.41 10.41 0 01-1.394-.847 3.566 3.566 0 01-.936-1.06c-.259-.435-.388-.971-.388-1.605 0-.694.159-1.301.477-1.818a3.122 3.122 0 011.324-1.191c.564-.276 1.206-.415 1.924-.415.47 0 .915.06 1.333.177.417.118.771.25 1.059.397.288.147.432.227.432.238l-.282 1.2a14.182 14.182 0 00-.433-.238 5.595 5.595 0 00-.874-.362 3.403 3.403 0 00-1.077-.176c-.447 0-.806.126-1.077.379-.271.253-.406.604-.406 1.051 0 .494.159.888.477 1.182.317.295.806.618 1.465.972.588.317 1.059.605 1.412.864s.656.609.909 1.051c.253.44.379.991.379 1.649 0 .718-.179 1.336-.538 1.854a3.464 3.464 0 01-1.456 1.191c-.612.276-1.295.415-2.047.415-.778-.002-1.426-.105-1.943-.31zM71.266 127.413c-.518-.206-.903-.427-1.156-.662-.253-.235-.379-.377-.379-.424l.67-1.023c0 .023.115.132.344.326s.541.374.936.538c.394.165.85.247 1.368.247.553 0 .982-.146 1.289-.44.306-.295.459-.683.459-1.165 0-.307-.083-.574-.247-.804a2.313 2.313 0 00-.609-.582c-.242-.159-.58-.362-1.015-.609a10.41 10.41 0 01-1.394-.847 3.566 3.566 0 01-.936-1.06c-.259-.435-.388-.971-.388-1.605 0-.694.159-1.301.477-1.818a3.122 3.122 0 011.324-1.191c.564-.276 1.206-.415 1.924-.415.47 0 .915.06 1.333.177.417.118.771.25 1.059.397.288.147.432.227.432.238l-.282 1.2a14.182 14.182 0 00-.433-.238 5.595 5.595 0 00-.874-.362 3.403 3.403 0 00-1.077-.176c-.447 0-.806.126-1.077.379-.271.253-.406.604-.406 1.051 0 .494.159.888.477 1.182.317.295.806.618 1.465.972.588.317 1.059.605 1.412.864s.656.609.909 1.051c.253.44.379.991.379 1.649 0 .718-.179 1.336-.538 1.854a3.464 3.464 0 01-1.456 1.191c-.612.276-1.295.415-2.047.415-.778-.002-1.425-.105-1.943-.31zM79.862 126.159c-.906-1.041-1.359-2.468-1.359-4.28 0-1.2.206-2.253.618-3.159.412-.905 1.012-1.605 1.8-2.1.789-.495 1.724-.742 2.807-.742.541 0 1.074.068 1.597.203.523.136.977.282 1.359.441.382.159.573.244.573.256l-.247 1.289a10.175 10.175 0 00-1.738-.67 4.409 4.409 0 00-1.245-.194c-.659 0-1.194.147-1.606.441-.412.294-.721.776-.927 1.447s-.309 1.57-.309 2.7c0 1.659.241 2.842.724 3.548.482.706 1.229 1.059 2.241 1.059.565 0 1.062-.12 1.492-.361a4.19 4.19 0 001.042-.795c.265-.288.397-.449.397-.485l.776.848c0 .059-.156.271-.468.636-.312.364-.768.703-1.368 1.015s-1.335.468-2.206.468c-1.73-.003-3.047-.523-3.953-1.565zM90.116 127.413c-.518-.206-.903-.427-1.156-.662-.253-.235-.379-.377-.379-.424l.67-1.023c0 .023.115.132.344.326s.541.374.936.538c.394.165.85.247 1.368.247.553 0 .982-.146 1.289-.44.306-.295.459-.683.459-1.165 0-.307-.083-.574-.247-.804a2.313 2.313 0 00-.609-.582c-.242-.159-.58-.362-1.015-.609a10.41 10.41 0 01-1.394-.847 3.566 3.566 0 01-.936-1.06c-.259-.435-.388-.971-.388-1.605 0-.694.159-1.301.477-1.818a3.122 3.122 0 011.324-1.191c.564-.276 1.206-.415 1.924-.415.47 0 .915.06 1.333.177.417.118.771.25 1.059.397.288.147.432.227.432.238l-.282 1.2a14.182 14.182 0 00-.433-.238 5.595 5.595 0 00-.874-.362 3.403 3.403 0 00-1.077-.176c-.447 0-.806.126-1.077.379-.271.253-.406.604-.406 1.051 0 .494.159.888.477 1.182.317.295.806.618 1.465.972.588.317 1.059.605 1.412.864s.656.609.909 1.051c.253.44.379.991.379 1.649 0 .718-.179 1.336-.538 1.854a3.464 3.464 0 01-1.456 1.191c-.612.276-1.295.415-2.047.415-.778-.002-1.426-.105-1.943-.31zM98.799 127.413c-.518-.206-.903-.427-1.156-.662-.253-.235-.379-.377-.379-.424l.67-1.023c0 .023.115.132.344.326s.541.374.936.538c.394.165.85.247 1.368.247.553 0 .982-.146 1.289-.44.306-.295.459-.683.459-1.165 0-.307-.083-.574-.247-.804a2.313 2.313 0 00-.609-.582c-.242-.159-.58-.362-1.015-.609a10.41 10.41 0 01-1.394-.847 3.566 3.566 0 01-.936-1.06c-.259-.435-.388-.971-.388-1.605 0-.694.159-1.301.477-1.818a3.122 3.122 0 011.324-1.191c.564-.276 1.206-.415 1.924-.415.47 0 .915.06 1.333.177.417.118.771.25 1.059.397.288.147.432.227.432.238l-.282 1.2a14.182 14.182 0 00-.433-.238 5.595 5.595 0 00-.874-.362 3.403 3.403 0 00-1.077-.176c-.447 0-.806.126-1.077.379-.271.253-.406.604-.406 1.051 0 .494.159.888.477 1.182.317.295.806.618 1.465.972.588.317 1.059.605 1.412.864s.656.609.909 1.051c.253.44.379.991.379 1.649 0 .718-.179 1.336-.538 1.854a3.464 3.464 0 01-1.456 1.191c-.612.276-1.295.415-2.047.415-.778-.002-1.425-.105-1.943-.31zM107.395 126.159c-.906-1.041-1.359-2.468-1.359-4.28 0-1.2.206-2.253.618-3.159.412-.905 1.012-1.605 1.8-2.1.789-.495 1.724-.742 2.807-.742.541 0 1.074.068 1.597.203.523.136.977.282 1.359.441.382.159.573.244.573.256l-.247 1.289a10.175 10.175 0 00-1.738-.67 4.409 4.409 0 00-1.245-.194c-.659 0-1.194.147-1.606.441-.412.294-.721.776-.927 1.447s-.309 1.57-.309 2.7c0 1.659.241 2.842.724 3.548.482.706 1.229 1.059 2.241 1.059.565 0 1.062-.12 1.492-.361a4.19 4.19 0 001.042-.795c.265-.288.397-.449.397-.485l.776.848c0 .059-.156.271-.468.636-.312.364-.768.703-1.368 1.015s-1.335.468-2.206.468c-1.729-.003-3.047-.523-3.953-1.565zM117.649 127.413c-.518-.206-.903-.427-1.156-.662-.253-.235-.379-.377-.379-.424l.67-1.023c0 .023.115.132.344.326s.541.374.935.538c.395.165.851.247 1.368.247.553 0 .982-.146 1.288-.44.307-.295.459-.683.459-1.165 0-.307-.082-.574-.247-.804s-.367-.423-.608-.582-.58-.362-1.015-.609a10.493 10.493 0 01-1.395-.847 3.566 3.566 0 01-.936-1.06c-.259-.435-.388-.971-.388-1.605 0-.694.159-1.301.477-1.818a3.122 3.122 0 011.324-1.191c.564-.276 1.206-.415 1.924-.415.471 0 .915.06 1.332.177.418.118.771.25 1.06.397.288.147.433.227.433.238l-.283 1.2a13.64 13.64 0 00-.432-.238 5.595 5.595 0 00-.874-.362 3.408 3.408 0 00-1.077-.176c-.447 0-.806.126-1.076.379s-.406.604-.406 1.051c0 .494.159.888.477 1.182.318.295.806.618 1.465.972.589.317 1.06.605 1.412.864.354.259.656.609.909 1.051.253.44.38.991.38 1.649 0 .718-.18 1.336-.539 1.854a3.452 3.452 0 01-1.456 1.191c-.611.276-1.294.415-2.047.415-.778-.002-1.425-.105-1.943-.31zM126.333 127.413c-.519-.206-.903-.427-1.156-.662s-.38-.377-.38-.424l.671-1.023c0 .023.115.132.345.326.229.194.541.374.935.538.395.165.851.247 1.368.247.553 0 .982-.146 1.288-.44.307-.295.459-.683.459-1.165 0-.307-.082-.574-.247-.804s-.367-.423-.608-.582-.58-.362-1.015-.609a10.493 10.493 0 01-1.395-.847 3.566 3.566 0 01-.936-1.06c-.259-.435-.389-.971-.389-1.605 0-.694.159-1.301.477-1.818a3.128 3.128 0 011.324-1.191c.564-.276 1.206-.415 1.924-.415.471 0 .915.06 1.332.177.418.118.771.25 1.06.397.288.147.433.227.433.238l-.283 1.2a13.64 13.64 0 00-.432-.238 5.595 5.595 0 00-.874-.362 3.408 3.408 0 00-1.077-.176c-.447 0-.806.126-1.076.379s-.406.604-.406 1.051c0 .494.159.888.477 1.182.318.295.806.618 1.465.972.589.317 1.06.605 1.412.864.354.259.656.609.909 1.051.253.44.38.991.38 1.649 0 .718-.18 1.336-.539 1.854a3.452 3.452 0 01-1.456 1.191c-.611.276-1.294.415-2.047.415-.778-.002-1.425-.105-1.943-.31z"/>
    <g>
      <path fill="none" d="M72.509 90.862h83.25v16.25h-83.25z"/>
      <path fill="#EDFF80" d="M74.056 103.309V92.584h2.277v4.686h3.712v-4.686h2.277v10.725h-2.277v-4.884h-3.712v4.884h-2.277zM86.711 103.309v-9.537h-2.888v-1.188h8.052v1.188h-2.871v9.537h-2.293zM93.377 103.309l.132-10.725h2.756l3.003 7.903h.066l2.954-7.903h2.557l.116 10.725h-2.228l-.115-8.118h-.05l-2.986 8.118h-1.7l-2.986-8.118h-.05l-.049 8.118h-1.42zM107.501 103.309V92.584h2.277v9.536h4.158v1.188h-6.435zM115.404 103.309V92.584h2.277v4.686h3.712v-4.686h2.277v10.725h-2.277v-4.884h-3.712v4.884h-2.277zM128.06 103.309v-9.537h-2.887v-1.188h8.052v1.188h-2.871v9.537h-2.294zM134.726 103.309l.132-10.725h2.756l3.003 7.903h.065l2.954-7.903h2.558l.115 10.725h-2.228l-.115-8.118h-.05l-2.986 8.118h-1.699l-2.987-8.118h-.049l-.05 8.118h-1.419zM148.85 103.309V92.584h2.277v9.536h4.157v1.188h-6.434z"/>
    </g>
    <g>
      <path fill="none" d="M49.384 102.572h84.5v14.413h-84.5z"/>
      <path fill="#FCC539" d="M51.931 114.948c-.486-.193-.847-.4-1.084-.621s-.355-.353-.355-.396l.629-.96c0 .021.107.124.323.306.215.183.507.351.877.505s.797.231 1.283.231c.519 0 .921-.138 1.208-.413.287-.276.43-.64.43-1.093a1.26 1.26 0 00-.231-.753 2.168 2.168 0 00-.571-.546c-.227-.149-.544-.34-.952-.571a9.75 9.75 0 01-1.308-.794 3.338 3.338 0 01-.877-.993c-.243-.408-.364-.91-.364-1.506 0-.651.149-1.22.447-1.705s.711-.857 1.241-1.117c.53-.259 1.131-.389 1.804-.389.441 0 .857.056 1.25.165.391.11.722.234.993.373.271.138.406.212.406.223l-.265 1.126c-.055-.033-.19-.107-.405-.224s-.488-.229-.819-.339-.667-.166-1.009-.166c-.419 0-.756.119-1.01.356s-.38.565-.38.984c0 .463.149.833.447 1.108.298.276.755.579 1.374.91.552.298.993.568 1.324.812.331.242.615.571.853.984.237.414.356.93.356 1.548 0 .673-.168 1.252-.505 1.737a3.25 3.25 0 01-1.365 1.117c-.574.259-1.214.389-1.92.389-.733.001-1.339-.096-1.825-.288zM61.497 115.055l-3.227-10.758h2.417l2.548 9.086h.05l2.764-9.086h1.44l-3.459 10.758h-2.533zM69.209 113.781c-.805-.971-1.208-2.328-1.208-4.071s.436-3.108 1.308-4.096 2.091-1.481 3.658-1.481c.507 0 1.009.063 1.506.19s.924.265 1.283.413c.358.149.538.229.538.24l-.248 1.208a9.311 9.311 0 00-1.614-.629 4.17 4.17 0 00-1.167-.182c-.685 0-1.225.146-1.622.438s-.684.753-.861 1.382c-.176.629-.265 1.473-.265 2.532 0 1.501.215 2.588.646 3.261s1.048 1.009 1.854 1.009c.596 0 1.026-.159 1.291-.479s.436-.656.513-1.01v-2.002h-1.672v-1.126h3.608v5.677h-.993l-.58-.943a2.83 2.83 0 01-1.018.811c-.425.21-.941.314-1.547.314-1.468 0-2.604-.486-3.41-1.456zM79.702 114.948c-.486-.193-.847-.4-1.084-.621s-.355-.353-.355-.396l.629-.96c0 .021.107.124.323.306.215.183.507.351.877.505s.797.231 1.283.231c.519 0 .921-.138 1.208-.413.287-.276.43-.64.43-1.093a1.26 1.26 0 00-.231-.753 2.168 2.168 0 00-.571-.546c-.227-.149-.544-.34-.952-.571a9.75 9.75 0 01-1.308-.794 3.338 3.338 0 01-.877-.993c-.243-.408-.364-.91-.364-1.506 0-.651.149-1.22.447-1.705s.711-.857 1.241-1.117c.53-.259 1.131-.389 1.804-.389.441 0 .857.056 1.25.165.391.11.722.234.993.373.271.138.406.212.406.223l-.265 1.126c-.055-.033-.19-.107-.405-.224s-.488-.229-.819-.339-.667-.166-1.009-.166c-.419 0-.756.119-1.01.356s-.38.565-.38.984c0 .463.149.833.447 1.108.298.276.755.579 1.374.91.552.298.993.568 1.324.812.331.242.615.571.853.984.237.414.356.93.356 1.548 0 .673-.168 1.252-.505 1.737a3.25 3.25 0 01-1.365 1.117c-.574.259-1.214.389-1.92.389-.733.001-1.339-.096-1.825-.288zM89.268 115.055l-3.227-10.758h2.417l2.548 9.086h.05l2.764-9.086h1.44l-3.46 10.758h-2.532zM96.979 113.781c-.805-.971-1.208-2.328-1.208-4.071s.436-3.108 1.308-4.096 2.091-1.481 3.658-1.481c.507 0 1.009.063 1.506.19s.924.265 1.283.413c.358.149.538.229.538.24l-.248 1.208a9.311 9.311 0 00-1.614-.629 4.17 4.17 0 00-1.167-.182c-.685 0-1.225.146-1.622.438s-.684.753-.861 1.382c-.176.629-.265 1.473-.265 2.532 0 1.501.215 2.588.646 3.261s1.048 1.009 1.854 1.009c.596 0 1.026-.159 1.291-.479s.436-.656.513-1.01v-2.002h-1.672v-1.126h3.608v5.677h-.993l-.58-.943a2.83 2.83 0 01-1.018.811c-.425.21-.941.314-1.547.314-1.468 0-2.604-.486-3.41-1.456zM107.473 114.948c-.486-.193-.847-.4-1.084-.621s-.355-.353-.355-.396l.629-.96c0 .021.107.124.323.306.215.183.507.351.877.505s.797.231 1.283.231c.519 0 .921-.138 1.208-.413.287-.276.43-.64.43-1.093a1.26 1.26 0 00-.231-.753 2.168 2.168 0 00-.571-.546c-.227-.149-.544-.34-.952-.571a9.75 9.75 0 01-1.308-.794 3.338 3.338 0 01-.877-.993c-.243-.408-.364-.91-.364-1.506 0-.651.149-1.22.447-1.705s.711-.857 1.241-1.117c.53-.259 1.131-.389 1.804-.389.441 0 .857.056 1.25.165.391.11.722.234.993.373.271.138.406.212.406.223l-.265 1.126c-.055-.033-.19-.107-.405-.224s-.488-.229-.819-.339-.667-.166-1.009-.166c-.419 0-.756.119-1.01.356s-.38.565-.38.984c0 .463.149.833.447 1.108.298.276.755.579 1.374.91.552.298.993.568 1.324.812.331.242.615.571.853.984.237.414.356.93.356 1.548 0 .673-.168 1.252-.505 1.737a3.25 3.25 0 01-1.365 1.117c-.574.259-1.214.389-1.92.389-.733.001-1.34-.096-1.825-.288zM117.038 115.055l-3.227-10.758h2.417l2.549 9.086h.05l2.764-9.086h1.439l-3.459 10.758h-2.533zM124.75 113.781c-.806-.971-1.208-2.328-1.208-4.071s.436-3.108 1.308-4.096c.871-.987 2.091-1.481 3.657-1.481.508 0 1.01.063 1.506.19a9.64 9.64 0 011.283.413c.358.149.538.229.538.24l-.249 1.208a9.334 9.334 0 00-1.614-.629 4.17 4.17 0 00-1.167-.182c-.684 0-1.225.146-1.622.438-.396.292-.684.753-.86 1.382s-.265 1.473-.265 2.532c0 1.501.215 2.588.646 3.261s1.048 1.009 1.854 1.009c.596 0 1.026-.159 1.291-.479s.436-.656.513-1.01v-2.002h-1.671v-1.126h3.607v5.677h-.993l-.579-.943a2.83 2.83 0 01-1.018.811c-.425.21-.94.314-1.548.314-1.467 0-2.603-.486-3.409-1.456z"/>
    </g>
    <g>
      <path fill="none" d="M-10.404 90.862h83.25v16.25h-83.25z"/>
      <path fill="#EDFF80" d="M-8.857 103.309V92.584h2.277v4.686h3.712v-4.686h2.277v10.725h-2.277v-4.884H-6.58v4.884h-2.277zM3.798 103.309v-9.537H.911v-1.188h8.052v1.188H6.092v9.537H3.798zM10.464 103.309l.132-10.725h2.756l3.003 7.903h.066l2.954-7.903h2.557l.116 10.725H19.82l-.115-8.118h-.05l-2.986 8.118h-1.7l-2.986-8.118h-.05l-.049 8.118h-1.42zM24.588 103.309V92.584h2.277v9.536h4.158v1.188h-6.435zM32.491 103.309V92.584h2.277v4.686h3.712v-4.686h2.277v10.725H38.48v-4.884h-3.712v4.884h-2.277zM45.147 103.309v-9.537h-2.888v-1.188h8.052v1.188H47.44v9.537h-2.293zM51.813 103.309l.132-10.725H54.7l3.003 7.903h.066l2.954-7.903h2.557l.116 10.725h-2.228l-.115-8.118h-.05l-2.986 8.118h-1.7l-2.986-8.118h-.05l-.049 8.118h-1.419zM65.937 103.309V92.584h2.277v9.536h4.158v1.188h-6.435z"/>
    </g>
    <g>
      <path fill="none" d="M72.509 90.862h83.25v16.25h-83.25z"/>
      <path fill="#EDFF80" d="M74.056 103.309V92.584h2.277v4.686h3.712v-4.686h2.277v10.725h-2.277v-4.884h-3.712v4.884h-2.277zM86.711 103.309v-9.537h-2.888v-1.188h8.052v1.188h-2.871v9.537h-2.293zM93.377 103.309l.132-10.725h2.756l3.003 7.903h.066l2.954-7.903h2.557l.116 10.725h-2.228l-.115-8.118h-.05l-2.986 8.118h-1.7l-2.986-8.118h-.05l-.049 8.118h-1.42zM107.501 103.309V92.584h2.277v9.536h4.158v1.188h-6.435zM115.404 103.309V92.584h2.277v4.686h3.712v-4.686h2.277v10.725h-2.277v-4.884h-3.712v4.884h-2.277zM128.06 103.309v-9.537h-2.887v-1.188h8.052v1.188h-2.871v9.537h-2.294zM134.726 103.309l.132-10.725h2.756l3.003 7.903h.065l2.954-7.903h2.558l.115 10.725h-2.228l-.115-8.118h-.05l-2.986 8.118h-1.699l-2.987-8.118h-.049l-.05 8.118h-1.419zM148.85 103.309V92.584h2.277v9.536h4.157v1.188h-6.434z"/>
    </g>
    <g>
      <path fill="none" d="M50.009 78.071h83.251v16.25H50.009z"/>
      <path fill="#FF5D7E" d="M52.329 90.016c-.906-1.041-1.359-2.468-1.359-4.28 0-1.2.206-2.253.618-3.159.412-.906 1.012-1.606 1.8-2.101.789-.494 1.724-.741 2.807-.741.541 0 1.074.068 1.597.203s.977.282 1.359.441c.382.159.573.245.573.256l-.247 1.289a10.367 10.367 0 00-1.738-.67 4.445 4.445 0 00-1.245-.194c-.659 0-1.194.147-1.606.441-.412.294-.721.776-.927 1.447-.206.67-.309 1.571-.309 2.7 0 1.659.241 2.842.724 3.548.482.706 1.229 1.059 2.241 1.059.565 0 1.062-.12 1.492-.361a4.19 4.19 0 001.042-.795c.265-.288.397-.449.397-.485l.776.848c0 .059-.156.271-.468.636-.312.364-.768.703-1.368 1.015s-1.335.468-2.206.468c-1.73-.002-3.048-.523-3.953-1.565zM62.583 91.27c-.518-.206-.903-.427-1.156-.662-.253-.235-.379-.377-.379-.424l.67-1.023c0 .023.115.132.344.326s.541.374.936.538c.394.165.85.247 1.368.247.553 0 .982-.146 1.289-.44.306-.295.459-.683.459-1.165 0-.307-.083-.574-.247-.804a2.313 2.313 0 00-.609-.582c-.242-.159-.58-.362-1.015-.609a10.41 10.41 0 01-1.394-.847 3.574 3.574 0 01-.936-1.059c-.259-.435-.388-.971-.388-1.606 0-.694.159-1.3.477-1.818a3.122 3.122 0 011.324-1.191c.564-.276 1.206-.415 1.924-.415.47 0 .915.059 1.333.176.417.118.771.25 1.059.397.288.147.432.227.432.238l-.282 1.2c-.059-.036-.203-.115-.433-.238s-.521-.244-.874-.362-.712-.177-1.077-.177c-.447 0-.806.126-1.077.379-.271.253-.406.604-.406 1.05 0 .494.159.889.477 1.183.317.294.806.618 1.465.971.588.318 1.059.606 1.412.865s.656.609.909 1.051c.253.44.379.991.379 1.649 0 .718-.179 1.336-.538 1.854a3.464 3.464 0 01-1.456 1.191c-.612.276-1.295.415-2.047.415-.778.001-1.426-.103-1.943-.308zM71.266 91.27c-.518-.206-.903-.427-1.156-.662-.253-.235-.379-.377-.379-.424l.67-1.023c0 .023.115.132.344.326s.541.374.936.538c.394.165.85.247 1.368.247.553 0 .982-.146 1.289-.44.306-.295.459-.683.459-1.165 0-.307-.083-.574-.247-.804a2.313 2.313 0 00-.609-.582c-.242-.159-.58-.362-1.015-.609a10.41 10.41 0 01-1.394-.847 3.574 3.574 0 01-.936-1.059c-.259-.435-.388-.971-.388-1.606 0-.694.159-1.3.477-1.818a3.122 3.122 0 011.324-1.191c.564-.276 1.206-.415 1.924-.415.47 0 .915.059 1.333.176.417.118.771.25 1.059.397.288.147.432.227.432.238l-.282 1.2c-.059-.036-.203-.115-.433-.238s-.521-.244-.874-.362-.712-.177-1.077-.177c-.447 0-.806.126-1.077.379-.271.253-.406.604-.406 1.05 0 .494.159.889.477 1.183.317.294.806.618 1.465.971.588.318 1.059.606 1.412.865s.656.609.909 1.051c.253.44.379.991.379 1.649 0 .718-.179 1.336-.538 1.854a3.464 3.464 0 01-1.456 1.191c-.612.276-1.295.415-2.047.415-.778.001-1.425-.103-1.943-.308zM79.862 90.016c-.906-1.041-1.359-2.468-1.359-4.28 0-1.2.206-2.253.618-3.159.412-.906 1.012-1.606 1.8-2.101.789-.494 1.724-.741 2.807-.741.541 0 1.074.068 1.597.203s.977.282 1.359.441c.382.159.573.245.573.256l-.247 1.289a10.367 10.367 0 00-1.738-.67 4.445 4.445 0 00-1.245-.194c-.659 0-1.194.147-1.606.441-.412.294-.721.776-.927 1.447-.206.67-.309 1.571-.309 2.7 0 1.659.241 2.842.724 3.548.482.706 1.229 1.059 2.241 1.059.565 0 1.062-.12 1.492-.361a4.19 4.19 0 001.042-.795c.265-.288.397-.449.397-.485l.776.848c0 .059-.156.271-.468.636-.312.364-.768.703-1.368 1.015s-1.335.468-2.206.468c-1.73-.002-3.047-.523-3.953-1.565zM90.116 91.27c-.518-.206-.903-.427-1.156-.662-.253-.235-.379-.377-.379-.424l.67-1.023c0 .023.115.132.344.326s.541.374.936.538c.394.165.85.247 1.368.247.553 0 .982-.146 1.289-.44.306-.295.459-.683.459-1.165 0-.307-.083-.574-.247-.804a2.313 2.313 0 00-.609-.582c-.242-.159-.58-.362-1.015-.609a10.41 10.41 0 01-1.394-.847 3.574 3.574 0 01-.936-1.059c-.259-.435-.388-.971-.388-1.606 0-.694.159-1.3.477-1.818a3.122 3.122 0 011.324-1.191c.564-.276 1.206-.415 1.924-.415.47 0 .915.059 1.333.176.417.118.771.25 1.059.397.288.147.432.227.432.238l-.282 1.2c-.059-.036-.203-.115-.433-.238s-.521-.244-.874-.362-.712-.177-1.077-.177c-.447 0-.806.126-1.077.379-.271.253-.406.604-.406 1.05 0 .494.159.889.477 1.183.317.294.806.618 1.465.971.588.318 1.059.606 1.412.865s.656.609.909 1.051c.253.44.379.991.379 1.649 0 .718-.179 1.336-.538 1.854a3.464 3.464 0 01-1.456 1.191c-.612.276-1.295.415-2.047.415-.778.001-1.426-.103-1.943-.308zM98.799 91.27c-.518-.206-.903-.427-1.156-.662-.253-.235-.379-.377-.379-.424l.67-1.023c0 .023.115.132.344.326s.541.374.936.538c.394.165.85.247 1.368.247.553 0 .982-.146 1.289-.44.306-.295.459-.683.459-1.165 0-.307-.083-.574-.247-.804a2.313 2.313 0 00-.609-.582c-.242-.159-.58-.362-1.015-.609a10.41 10.41 0 01-1.394-.847 3.574 3.574 0 01-.936-1.059c-.259-.435-.388-.971-.388-1.606 0-.694.159-1.3.477-1.818a3.122 3.122 0 011.324-1.191c.564-.276 1.206-.415 1.924-.415.47 0 .915.059 1.333.176.417.118.771.25 1.059.397.288.147.432.227.432.238l-.282 1.2c-.059-.036-.203-.115-.433-.238s-.521-.244-.874-.362-.712-.177-1.077-.177c-.447 0-.806.126-1.077.379-.271.253-.406.604-.406 1.05 0 .494.159.889.477 1.183.317.294.806.618 1.465.971.588.318 1.059.606 1.412.865s.656.609.909 1.051c.253.44.379.991.379 1.649 0 .718-.179 1.336-.538 1.854a3.464 3.464 0 01-1.456 1.191c-.612.276-1.295.415-2.047.415-.778.001-1.425-.103-1.943-.308zM107.395 90.016c-.906-1.041-1.359-2.468-1.359-4.28 0-1.2.206-2.253.618-3.159.412-.906 1.012-1.606 1.8-2.101.789-.494 1.724-.741 2.807-.741.541 0 1.074.068 1.597.203s.977.282 1.359.441c.382.159.573.245.573.256l-.247 1.289a10.367 10.367 0 00-1.738-.67 4.445 4.445 0 00-1.245-.194c-.659 0-1.194.147-1.606.441-.412.294-.721.776-.927 1.447-.206.67-.309 1.571-.309 2.7 0 1.659.241 2.842.724 3.548.482.706 1.229 1.059 2.241 1.059.565 0 1.062-.12 1.492-.361a4.19 4.19 0 001.042-.795c.265-.288.397-.449.397-.485l.776.848c0 .059-.156.271-.468.636-.312.364-.768.703-1.368 1.015s-1.335.468-2.206.468c-1.729-.002-3.047-.523-3.953-1.565zM117.649 91.27c-.518-.206-.903-.427-1.156-.662-.253-.235-.379-.377-.379-.424l.67-1.023c0 .023.115.132.344.326s.541.374.935.538c.395.165.851.247 1.368.247.553 0 .982-.146 1.288-.44.307-.295.459-.683.459-1.165 0-.307-.082-.574-.247-.804s-.367-.423-.608-.582-.58-.362-1.015-.609a10.493 10.493 0 01-1.395-.847 3.574 3.574 0 01-.936-1.059c-.259-.435-.388-.971-.388-1.606 0-.694.159-1.3.477-1.818a3.122 3.122 0 011.324-1.191c.564-.276 1.206-.415 1.924-.415.471 0 .915.059 1.332.176.418.118.771.25 1.06.397.288.147.433.227.433.238l-.283 1.2c-.059-.036-.202-.115-.432-.238s-.521-.244-.874-.362a3.38 3.38 0 00-1.077-.177c-.447 0-.806.126-1.076.379-.271.253-.406.604-.406 1.05 0 .494.159.889.477 1.183.318.294.806.618 1.465.971.589.318 1.06.606 1.412.865.354.259.656.609.909 1.051.253.44.38.991.38 1.649 0 .718-.18 1.336-.539 1.854a3.452 3.452 0 01-1.456 1.191c-.611.276-1.294.415-2.047.415-.778.001-1.425-.103-1.943-.308zM126.333 91.27c-.519-.206-.903-.427-1.156-.662s-.38-.377-.38-.424l.671-1.023c0 .023.115.132.345.326.229.194.541.374.935.538.395.165.851.247 1.368.247.553 0 .982-.146 1.288-.44.307-.295.459-.683.459-1.165 0-.307-.082-.574-.247-.804s-.367-.423-.608-.582-.58-.362-1.015-.609a10.493 10.493 0 01-1.395-.847 3.574 3.574 0 01-.936-1.059c-.259-.435-.389-.971-.389-1.606 0-.694.159-1.3.477-1.818a3.128 3.128 0 011.324-1.191c.564-.276 1.206-.415 1.924-.415.471 0 .915.059 1.332.176.418.118.771.25 1.06.397.288.147.433.227.433.238l-.283 1.2c-.059-.036-.202-.115-.432-.238s-.521-.244-.874-.362a3.38 3.38 0 00-1.077-.177c-.447 0-.806.126-1.076.379-.271.253-.406.604-.406 1.05 0 .494.159.889.477 1.183.318.294.806.618 1.465.971.589.318 1.06.606 1.412.865.354.259.656.609.909 1.051.253.44.38.991.38 1.649 0 .718-.18 1.336-.539 1.854a3.452 3.452 0 01-1.456 1.191c-.611.276-1.294.415-2.047.415-.778.001-1.425-.103-1.943-.308z"/>
    </g>
    <g>
      <path fill="none" d="M49.384 102.571h84.5v14.414h-84.5z"/>
      <path fill="#FCC539" d="M51.931 114.948c-.486-.193-.847-.4-1.084-.621s-.355-.353-.355-.396l.629-.96c0 .021.107.124.323.306.215.183.507.351.877.505s.797.231 1.283.231c.519 0 .921-.138 1.208-.413.287-.276.43-.64.43-1.093a1.26 1.26 0 00-.231-.753 2.168 2.168 0 00-.571-.546c-.227-.149-.544-.34-.952-.571a9.75 9.75 0 01-1.308-.794 3.338 3.338 0 01-.877-.993c-.243-.408-.364-.91-.364-1.506 0-.651.149-1.22.447-1.705s.711-.857 1.241-1.117c.53-.259 1.131-.389 1.804-.389.441 0 .857.056 1.25.165.391.11.722.234.993.373.271.138.406.212.406.223l-.265 1.126c-.055-.033-.19-.107-.405-.224s-.488-.229-.819-.339-.667-.166-1.009-.166c-.419 0-.756.119-1.01.356s-.38.565-.38.984c0 .463.149.833.447 1.108.298.276.755.579 1.374.91.552.298.993.568 1.324.812.331.242.615.571.853.984.237.414.356.93.356 1.548 0 .673-.168 1.252-.505 1.737a3.25 3.25 0 01-1.365 1.117c-.574.259-1.214.389-1.92.389-.733.001-1.339-.096-1.825-.288zM61.497 115.055l-3.227-10.758h2.417l2.548 9.086h.05l2.764-9.086h1.44l-3.459 10.758h-2.533zM69.209 113.781c-.805-.971-1.208-2.328-1.208-4.071s.436-3.108 1.308-4.096 2.091-1.481 3.658-1.481c.507 0 1.009.063 1.506.19s.924.265 1.283.413c.358.149.538.229.538.24l-.248 1.208a9.311 9.311 0 00-1.614-.629 4.17 4.17 0 00-1.167-.182c-.685 0-1.225.146-1.622.438s-.684.753-.861 1.382c-.176.629-.265 1.473-.265 2.532 0 1.501.215 2.588.646 3.261s1.048 1.009 1.854 1.009c.596 0 1.026-.159 1.291-.479s.436-.656.513-1.01v-2.002h-1.672v-1.126h3.608v5.677h-.993l-.58-.943a2.83 2.83 0 01-1.018.811c-.425.21-.941.314-1.547.314-1.468 0-2.604-.486-3.41-1.456zM79.702 114.948c-.486-.193-.847-.4-1.084-.621s-.355-.353-.355-.396l.629-.96c0 .021.107.124.323.306.215.183.507.351.877.505s.797.231 1.283.231c.519 0 .921-.138 1.208-.413.287-.276.43-.64.43-1.093a1.26 1.26 0 00-.231-.753 2.168 2.168 0 00-.571-.546c-.227-.149-.544-.34-.952-.571a9.75 9.75 0 01-1.308-.794 3.338 3.338 0 01-.877-.993c-.243-.408-.364-.91-.364-1.506 0-.651.149-1.22.447-1.705s.711-.857 1.241-1.117c.53-.259 1.131-.389 1.804-.389.441 0 .857.056 1.25.165.391.11.722.234.993.373.271.138.406.212.406.223l-.265 1.126c-.055-.033-.19-.107-.405-.224s-.488-.229-.819-.339-.667-.166-1.009-.166c-.419 0-.756.119-1.01.356s-.38.565-.38.984c0 .463.149.833.447 1.108.298.276.755.579 1.374.91.552.298.993.568 1.324.812.331.242.615.571.853.984.237.414.356.93.356 1.548 0 .673-.168 1.252-.505 1.737a3.25 3.25 0 01-1.365 1.117c-.574.259-1.214.389-1.92.389-.733.001-1.339-.096-1.825-.288zM89.268 115.055l-3.227-10.758h2.417l2.548 9.086h.05l2.764-9.086h1.44l-3.46 10.758h-2.532zM96.979 113.781c-.805-.971-1.208-2.328-1.208-4.071s.436-3.108 1.308-4.096 2.091-1.481 3.658-1.481c.507 0 1.009.063 1.506.19s.924.265 1.283.413c.358.149.538.229.538.24l-.248 1.208a9.311 9.311 0 00-1.614-.629 4.17 4.17 0 00-1.167-.182c-.685 0-1.225.146-1.622.438s-.684.753-.861 1.382c-.176.629-.265 1.473-.265 2.532 0 1.501.215 2.588.646 3.261s1.048 1.009 1.854 1.009c.596 0 1.026-.159 1.291-.479s.436-.656.513-1.01v-2.002h-1.672v-1.126h3.608v5.677h-.993l-.58-.943a2.83 2.83 0 01-1.018.811c-.425.21-.941.314-1.547.314-1.468 0-2.604-.486-3.41-1.456zM107.473 114.948c-.486-.193-.847-.4-1.084-.621s-.355-.353-.355-.396l.629-.96c0 .021.107.124.323.306.215.183.507.351.877.505s.797.231 1.283.231c.519 0 .921-.138 1.208-.413.287-.276.43-.64.43-1.093a1.26 1.26 0 00-.231-.753 2.168 2.168 0 00-.571-.546c-.227-.149-.544-.34-.952-.571a9.75 9.75 0 01-1.308-.794 3.338 3.338 0 01-.877-.993c-.243-.408-.364-.91-.364-1.506 0-.651.149-1.22.447-1.705s.711-.857 1.241-1.117c.53-.259 1.131-.389 1.804-.389.441 0 .857.056 1.25.165.391.11.722.234.993.373.271.138.406.212.406.223l-.265 1.126c-.055-.033-.19-.107-.405-.224s-.488-.229-.819-.339-.667-.166-1.009-.166c-.419 0-.756.119-1.01.356s-.38.565-.38.984c0 .463.149.833.447 1.108.298.276.755.579 1.374.91.552.298.993.568 1.324.812.331.242.615.571.853.984.237.414.356.93.356 1.548 0 .673-.168 1.252-.505 1.737a3.25 3.25 0 01-1.365 1.117c-.574.259-1.214.389-1.92.389-.733.001-1.34-.096-1.825-.288zM117.038 115.055l-3.227-10.758h2.417l2.549 9.086h.05l2.764-9.086h1.439l-3.459 10.758h-2.533zM124.75 113.781c-.806-.971-1.208-2.328-1.208-4.071s.436-3.108 1.308-4.096c.871-.987 2.091-1.481 3.657-1.481.508 0 1.01.063 1.506.19a9.64 9.64 0 011.283.413c.358.149.538.229.538.24l-.249 1.208a9.334 9.334 0 00-1.614-.629 4.17 4.17 0 00-1.167-.182c-.684 0-1.225.146-1.622.438-.396.292-.684.753-.86 1.382s-.265 1.473-.265 2.532c0 1.501.215 2.588.646 3.261s1.048 1.009 1.854 1.009c.596 0 1.026-.159 1.291-.479s.436-.656.513-1.01v-2.002h-1.671v-1.126h3.607v5.677h-.993l-.579-.943a2.83 2.83 0 01-1.018.811c-.425.21-.94.314-1.548.314-1.467 0-2.603-.486-3.409-1.456z"/>
    </g>
  </g>
  <linearGradient id="g" gradientUnits="userSpaceOnUse" x1="45.029" y1="121.751" x2="60.502" y2="121.751">
    <stop offset="0" stop-color="#f51e30"/>
    <stop offset=".228" stop-color="#f7283c" stop-opacity=".772"/>
    <stop offset=".641" stop-color="#fb425d" stop-opacity=".359"/>
    <stop offset="1" stop-color="#ff5d7e" stop-opacity="0"/>
  </linearGradient>
  <path fill="url(#g)" d="M58.667 103.667l-14.833 31.166s-3.667 5 2.167 5h12.667v-36.166z"/>
  <linearGradient id="h" gradientUnits="userSpaceOnUse" x1="140.975" y1="165.625" x2="128.7" y2="165.909">
    <stop offset="0" stop-color="#f51e30"/>
    <stop offset=".228" stop-color="#f7283c" stop-opacity=".772"/>
    <stop offset=".641" stop-color="#fb425d" stop-opacity=".359"/>
    <stop offset="1" stop-color="#ff5d7e" stop-opacity="0"/>
  </linearGradient>
  <path fill="url(#h)" d="M144.014 98.298c-.111-2.098-14.028-29.778-19.847-27.465-1.117 4.75 5 20.667 3.833 31-1.459 12.924-.161 62.137-.102 102.384.045 30.932.109 56.616.109 56.616H145s-.903-160.861-.986-162.535z"/>
  <path fill="#FCC539" d="M118 102.667h36.5v2H118z"/>
  <linearGradient id="i" gradientUnits="userSpaceOnUse" x1="150.614" y1="72.58" x2="129.409" y2="108.854">
    <stop offset="0" stop-color="#f51e30"/>
    <stop offset=".228" stop-color="#f7283c" stop-opacity=".772"/>
    <stop offset=".641" stop-color="#fb425d" stop-opacity=".359"/>
    <stop offset="1" stop-color="#ff5d7e" stop-opacity="0"/>
  </linearGradient>
  <path fill="url(#i)" d="M118.212 11.833c-28.345 0-53.933 11.767-72.123 30.667l-.002.002c-.407.423-.809.853-1.208 1.283-.114.123-.229.243-.341.366-.368.4-.73.805-1.092 1.21l-.416.467c-.349.397-.694.798-1.038 1.201l-.424.5a91.21 91.21 0 00-1.41 1.718c-.34.423-.677.848-1.01 1.277l-.336.438c-.349.455-.696.911-1.037 1.372l-.223.304a99.718 99.718 0 00-6.857 10.69l-.029.052c-.331.598-.655 1.199-.975 1.805l-.084.16a94.072 94.072 0 00-.916 1.79l-.09.181a92.718 92.718 0 00-.947 1.96 99.606 99.606 0 00-.873 1.908c37.921 3.915 43.155-22.46 43.822-27.762-.289 3.699-.511 17.654 11.802 23.413C96.66 73.5 113.291 69.167 119.74 73.5c6.447 4.333 18.667 10.333 18.327 33.333-.192 13.005-.165 62.137-.104 102.384.046 30.932.111 56.616.111 56.616H163s8.715-254-44.788-254z"/>
  <linearGradient id="j" gradientUnits="userSpaceOnUse" x1="48.777" y1="36.935" x2="69.505" y2="62.181">
    <stop offset="0" stop-color="#f51e30"/>
    <stop offset=".228" stop-color="#f7283c" stop-opacity=".772"/>
    <stop offset=".641" stop-color="#fb425d" stop-opacity=".359"/>
    <stop offset="1" stop-color="#ff5d7e" stop-opacity="0"/>
  </linearGradient>
  <path fill="url(#j)" d="M118.212 11.833c-28.345 0-53.933 11.767-72.123 30.667l-.002.002c-.407.423-.809.853-1.208 1.283-.114.123-.229.243-.341.366-.368.4-.73.805-1.092 1.21l-.416.467c-.349.397-.694.798-1.038 1.201l-.424.5a91.21 91.21 0 00-1.41 1.718c-.34.423-.677.848-1.01 1.277l-.336.438c-.349.455-.696.911-1.037 1.372l-.223.304a99.718 99.718 0 00-6.857 10.69l-.029.052c-.331.598-.655 1.199-.975 1.805l-.084.16a94.072 94.072 0 00-.916 1.79l-.09.181a92.718 92.718 0 00-.947 1.96 99.606 99.606 0 00-.873 1.908c37.921 3.915 43.155-22.46 43.822-27.762-.289 3.699-.511 17.654 11.802 23.413C96.66 73.5 113.291 69.167 119.74 73.5c6.447 4.333 18.667 10.333 18.327 33.333-.192 13.005-.165 62.137-.104 102.384.046 30.932.111 56.616.111 56.616H166.5s5.215-254-48.288-254z"/>
  <path fill="#FCC539" d="M216.042 101.445C213.449 48.75 170.547 6.833 118 6.833 90.162 6.833 65.032 18.6 47.167 37.5l-.001.002c-.4.423-.794.853-1.187 1.283-.111.123-.225.243-.335.366-.361.4-.717.805-1.072 1.21l-.408.467a97.782 97.782 0 00-1.436 1.701c-.334.405-.666.813-.994 1.224l-.391.494a94.65 94.65 0 00-.992 1.277l-.331.438c-.343.455-.683.911-1.018 1.372-.074.101-.146.203-.219.304a99.98 99.98 0 00-6.735 10.69l-.028.052a96.96 96.96 0 00-.957 1.805l-.083.16a93.438 93.438 0 00-.899 1.79l-.088.181c-.295.604-.584 1.212-.868 1.823l-.063.137a99.027 99.027 0 00-.857 1.908c37.242 3.915 42.383-22.46 43.038-27.762-.283 3.699-.501 17.654 11.591 23.413 14 6.667 30.334 2.333 36.667 6.667 6.334 4.333 18.334 10.333 18 33.333-.188 13.005-.161 62.137-.102 102.384.045 30.932.109 56.616.109 56.616h78.659V106.5c0-1.695-.042-3.38-.125-5.055z"/>
  <linearGradient id="k" gradientUnits="userSpaceOnUse" x1="170.175" y1="110.717" x2="176.342" y2="155.362">
    <stop offset="0" stop-color="#f51e30"/>
    <stop offset=".211" stop-color="#f6263a" stop-opacity=".789"/>
    <stop offset=".571" stop-color="#fa3c56" stop-opacity=".429"/>
    <stop offset="1" stop-color="#ff5d7e" stop-opacity="0"/>
  </linearGradient>
  <path fill="url(#k)" d="M163.527 131.625h22.76v26.709h-22.76z"/>
  <path fill="#FF5D7E" d="M186.287 131.625c0 12.864-10.429 23.292-23.293 23.292v-46.583c12.864-.001 23.293 10.427 23.293 23.291z"/>
  <linearGradient id="l" gradientUnits="userSpaceOnUse" x1="176.428" y1="131.859" x2="162.477" y2="131.577">
    <stop offset="0" stop-color="#f51e30"/>
    <stop offset=".228" stop-color="#f7283c" stop-opacity=".772"/>
    <stop offset=".641" stop-color="#fb425d" stop-opacity=".359"/>
    <stop offset="1" stop-color="#ff5d7e" stop-opacity="0"/>
  </linearGradient>
  <path fill="url(#l)" d="M178.516 131.625c0 7.595-6.156 13.75-13.75 13.75v-27.5c7.593 0 13.75 6.156 13.75 13.75z"/>
</svg>
