<svg xmlns="http://www.w3.org/2000/svg" xmlns:xlink="http://www.w3.org/1999/xlink" width="222.667" height="260.833"><style><![CDATA[.B{fill:#fcc539}.C{clip-path:url(#j)}.D{fill:#ff5d7e}.E{fill:#edff80}.F{clip-path:url(#l)}]]></style><use xlink:href="#D" class="B"/><linearGradient id="A" gradientUnits="userSpaceOnUse" x1="103.79" y1="155.314" x2="71.337" y2="213.015"><stop offset="0" stop-color="#f51e30"/><stop offset=".211" stop-color="#f6263a" stop-opacity=".79"/><stop offset=".571" stop-color="#fa3c56" stop-opacity=".43"/><stop offset="1" stop-color="#ff5d7e" stop-opacity="0"/></linearGradient><use xlink:href="#D" fill="url(#A)"/><path d="M117.5 188.5H163v72.333h-45.5z" class="D"/><linearGradient id="B" gradientUnits="userSpaceOnUse" x1="139.265" y1="198.564" x2="143.16" y2="217.167"><stop offset="0" stop-color="#f51e30"/><stop offset=".228" stop-color="#f7283c" stop-opacity=".772"/><stop offset=".641" stop-color="#fb425d" stop-opacity=".36"/><stop offset="1" stop-color="#ff5d7e" stop-opacity="0"/></linearGradient><path fill="url(#B)" d="M117.5 218.037l4.685.13c14.832 0 28.755-3.78 40.814-10.398V188.5h-45.5v29.537z"/><ellipse cx="118" cy="106.5" rx="98" ry="99.497" class="D"/><path fill="#fff" d="M71.333 152a12.67 12.67 0 0 1-12.667 12.667A12.67 12.67 0 0 1 46 152h25.333z"/><g class="B"><path d="M67.358 101.167a1 1 0 0 1-.903-.57c-.84-1.766-2.87-3.004-5.17-3.153-2.53-.162-4.83 1.025-6.28 3.267a1 1 0 0 1-1.383.297 1 1 0 0 1-.296-1.383c1.854-2.867 4.8-4.4 8.087-4.176 3.01.195 5.698 1.88 6.846 4.29a1 1 0 0 1-.473 1.332.99.99 0 0 1-.429.097z"/><circle cx="29.167" cy="103.667" r="26"/></g><defs><circle id="C" cx="29.167" cy="103.667" r="24"/><path id="D" d="M41.167 136.65v124.183h76.394l.272-72.333z"/><path id="E" d="M10.643 103.31V92.584h2.277v4.686h3.712v-4.686h2.277v10.725h-2.277v-4.884H12.92v4.884h-2.277z"/><path id="F" d="M23.298 103.31v-9.537H20.4v-1.188h8.052v1.188h-2.87v9.537h-2.293z"/><path id="G" d="M29.964 103.31l.132-10.725h2.756l3.003 7.903h.066l2.954-7.903h2.557l.116 10.725H39.32l-.115-8.118h-.05l-2.986 8.118h-1.7l-2.986-8.118h-.05l-.05 8.118h-1.42z"/><path id="H" d="M44.088 103.31V92.584h2.277v9.536h4.158v1.188h-6.435z"/><path id="I" d="M51.99 103.31V92.584h2.277v4.686h3.712v-4.686h2.277v10.725H57.98v-4.884h-3.712v4.884H51.99z"/><path id="J" d="M64.647 103.31v-9.537H61.76v-1.188h8.052v1.188h-2.87v9.537h-2.293z"/><path id="K" d="M71.313 103.31l.132-10.725H74.2l3.003 7.903h.066l2.954-7.903h2.557l.116 10.725h-2.228l-.115-8.118h-.05l-2.986 8.118h-1.7L72.83 95.19h-.05l-.05 8.118h-1.42z"/><path id="L" d="M-11.084 90.016c-.906-1.04-1.36-2.468-1.36-4.28 0-1.2.206-2.253.618-3.16s1.012-1.606 1.8-2.1 1.724-.74 2.807-.74a6.37 6.37 0 0 1 1.597.203c.523.135.977.282 1.36.44l.573.256-.247 1.29a7.73 7.73 0 0 0-.6-.273c-.317-.135-.697-.268-1.138-.397s-.856-.194-1.245-.194c-.66 0-1.194.147-1.606.44s-.72.776-.927 1.447-.31 1.57-.31 2.7c0 1.66.24 2.842.724 3.548s1.23 1.06 2.24 1.06c.565 0 1.062-.12 1.492-.36s.776-.506 1.042-.795.397-.45.397-.485l.776.848c0 .06-.156.27-.468.636s-.768.703-1.368 1.015-1.335.468-2.206.468c-1.73-.002-3.048-.523-3.953-1.565z"/><path id="M" d="M7.853 91.27c-.518-.206-.903-.427-1.156-.662s-.38-.377-.38-.424l.67-1.023c0 .023.115.132.344.326s.54.374.936.538.85.247 1.368.247c.553 0 .982-.146 1.29-.44s.46-.683.46-1.165c0-.307-.083-.574-.247-.804s-.368-.423-.61-.582l-1.015-.61a10.41 10.41 0 0 1-1.394-.847c-.365-.27-.677-.624-.936-1.06s-.388-.97-.388-1.606c0-.694.16-1.3.477-1.818a3.12 3.12 0 0 1 1.324-1.191c.564-.276 1.206-.415 1.924-.415a4.93 4.93 0 0 1 1.333.176c.417.118.77.25 1.06.397l.432.238-.282 1.2-.433-.238c-.23-.123-.52-.244-.874-.362s-.712-.177-1.077-.177c-.447 0-.806.126-1.077.38s-.406.604-.406 1.05c0 .494.16.89.477 1.183s.806.618 1.465.97c.588.318 1.06.606 1.412.865s.656.61.91 1.05.38.99.38 1.65c0 .718-.18 1.336-.538 1.854s-.845.915-1.456 1.19-1.295.415-2.047.415c-.778.001-1.425-.103-1.943-.308z"/><path id="N" d="M26.703 91.27c-.518-.206-.903-.427-1.156-.662s-.38-.377-.38-.424l.67-1.023c0 .023.115.132.344.326s.54.374.936.538.85.247 1.368.247c.553 0 .982-.146 1.29-.44s.46-.683.46-1.165c0-.307-.083-.574-.247-.804s-.368-.423-.61-.582l-1.015-.61a10.41 10.41 0 0 1-1.394-.847c-.365-.27-.677-.624-.936-1.06s-.388-.97-.388-1.606c0-.694.16-1.3.477-1.818a3.12 3.12 0 0 1 1.324-1.191c.564-.276 1.206-.415 1.924-.415a4.93 4.93 0 0 1 1.333.176c.417.118.77.25 1.06.397l.432.238-.282 1.2-.433-.238c-.23-.123-.52-.244-.874-.362s-.712-.177-1.077-.177c-.447 0-.806.126-1.077.38s-.406.604-.406 1.05c0 .494.16.89.477 1.183s.806.618 1.465.97c.588.318 1.06.606 1.412.865s.656.61.91 1.05.38.99.38 1.65c0 .718-.18 1.336-.538 1.854s-.845.915-1.456 1.19-1.295.415-2.047.415c-.778.001-1.426-.103-1.943-.308z"/><path id="O" d="M43.982 90.016c-.906-1.04-1.36-2.468-1.36-4.28 0-1.2.206-2.253.618-3.16s1.012-1.606 1.8-2.1 1.724-.74 2.807-.74a6.37 6.37 0 0 1 1.597.203c.523.135.977.282 1.36.44l.573.256-.247 1.29a7.73 7.73 0 0 0-.6-.273c-.317-.135-.697-.268-1.138-.397s-.856-.194-1.245-.194c-.66 0-1.194.147-1.606.44s-.72.776-.927 1.447-.31 1.57-.31 2.7c0 1.66.24 2.842.724 3.548s1.23 1.06 2.24 1.06c.565 0 1.062-.12 1.492-.36s.776-.506 1.042-.795.397-.45.397-.485l.776.848c0 .06-.156.27-.468.636s-.768.703-1.368 1.015-1.335.468-2.206.468c-1.73-.002-3.047-.523-3.953-1.565z"/><path id="P" d="M-11.482 114.948c-.486-.193-.847-.4-1.084-.62s-.355-.353-.355-.396l.63-.96c0 .02.107.124.323.306s.507.35.877.505.797.23 1.283.23c.52 0 .92-.138 1.208-.413s.43-.64.43-1.093a1.26 1.26 0 0 0-.231-.753 2.17 2.17 0 0 0-.571-.546l-.952-.57a9.75 9.75 0 0 1-1.308-.794c-.342-.254-.635-.585-.877-.993s-.364-.9-.364-1.506c0-.65.15-1.22.447-1.705a2.94 2.94 0 0 1 1.241-1.117c.53-.26 1.13-.39 1.804-.39.44 0 .857.056 1.25.165s.722.234.993.373l.406.223-.265 1.126-.405-.224c-.215-.117-.488-.23-.82-.34a3.18 3.18 0 0 0-1.009-.166c-.42 0-.756.12-1 .356s-.38.565-.38.984c0 .463.15.833.447 1.108s.755.58 1.374.9c.552.298.993.568 1.324.812s.615.57.853.984.356.93.356 1.548c0 .673-.168 1.252-.505 1.737a3.25 3.25 0 0 1-1.365 1.117c-.574.26-1.214.39-1.92.39-.733.001-1.34-.096-1.825-.288z"/><path id="Q" d="M-1.917 115.055l-3.227-10.758h2.417l2.548 9.086h.05l2.764-9.086h1.44l-3.46 10.758h-2.533z"/><path id="R" d="M5.796 113.78c-.805-.97-1.208-2.328-1.208-4.07s.436-3.108 1.308-4.096 2.09-1.48 3.658-1.48a6.06 6.06 0 0 1 1.506.19c.497.127.924.265 1.283.413l.538.24-.248 1.208c-.077-.044-.262-.13-.555-.256a9.31 9.31 0 0 0-1.059-.373 4.17 4.17 0 0 0-1.167-.182c-.685 0-1.225.146-1.622.438s-.684.753-.86 1.382-.265 1.473-.265 2.532c0 1.5.215 2.588.646 3.26a2.07 2.07 0 0 0 1.854 1.009c.596 0 1.026-.16 1.29-.48s.436-.656.513-1v-2.002H9.735v-1.126h3.608v5.677h-.993l-.58-.943a2.83 2.83 0 0 1-1.018.811c-.425.2-.94.314-1.547.314-1.467 0-2.603-.486-3.41-1.456z"/><path id="S" d="M33.566 113.78c-.805-.97-1.208-2.328-1.208-4.07s.436-3.108 1.308-4.096 2.09-1.48 3.658-1.48a6.06 6.06 0 0 1 1.506.19c.497.127.924.265 1.283.413l.538.24-.248 1.208c-.077-.044-.262-.13-.555-.256a9.31 9.31 0 0 0-1.059-.373 4.17 4.17 0 0 0-1.167-.182c-.685 0-1.225.146-1.622.438s-.684.753-.86 1.382-.265 1.473-.265 2.532c0 1.5.215 2.588.646 3.26a2.07 2.07 0 0 0 1.854 1.009c.596 0 1.026-.16 1.29-.48s.436-.656.513-1v-2.002h-1.672v-1.126h3.608v5.677h-.993l-.58-.943a2.83 2.83 0 0 1-1.018.811c-.425.2-.94.314-1.547.314-1.468 0-2.604-.486-3.4-1.456z"/><path id="T" d="M-72.27 103.31V92.584h2.277v4.686h3.712v-4.686h2.277v10.725h-2.277v-4.884h-3.712v4.884h-2.277z"/><path id="U" d="M-59.615 103.31v-9.537h-2.888v-1.188h8.052v1.188h-2.87v9.537h-2.293z"/><path id="V" d="M-52.95 103.31l.132-10.725h2.756l3.003 7.903h.066l2.954-7.903h2.557l.116 10.725h-2.228l-.115-8.118h-.05l-2.986 8.118h-1.7l-2.986-8.118h-.05l-.05 8.118h-1.42z"/><path id="W" d="M-11.084 126.16c-.906-1.04-1.36-2.468-1.36-4.28 0-1.2.206-2.253.618-3.16s1.012-1.605 1.8-2.1 1.724-.742 2.807-.742a6.37 6.37 0 0 1 1.597.203 10.37 10.37 0 0 1 1.359.441l.573.256-.247 1.29c-.083-.047-.282-.14-.6-.274s-.697-.268-1.138-.396-.856-.194-1.245-.194c-.66 0-1.194.147-1.606.44s-.72.776-.927 1.447-.31 1.57-.31 2.7c0 1.66.24 2.842.724 3.548s1.23 1.06 2.24 1.06c.565 0 1.062-.12 1.492-.36s.776-.506 1.042-.795.397-.45.397-.485l.776.848c0 .06-.156.27-.468.636s-.768.703-1.368 1.015-1.335.468-2.206.468c-1.73-.003-3.048-.523-3.953-1.565z"/><path id="X" d="M-.83 127.413c-.518-.206-.903-.427-1.156-.662s-.38-.377-.38-.424l.67-1.023c0 .023.115.132.344.326s.54.374.936.538.85.247 1.368.247c.553 0 .982-.146 1.29-.44s.46-.683.46-1.165c0-.307-.083-.574-.247-.804s-.368-.423-.61-.582l-1.015-.61a10.41 10.41 0 0 1-1.394-.847c-.365-.27-.677-.624-.936-1.06s-.388-.97-.388-1.605c0-.694.16-1.3.477-1.818a3.12 3.12 0 0 1 1.324-1.191c.564-.276 1.206-.415 1.924-.415a4.93 4.93 0 0 1 1.333.177c.417.118.77.25 1.06.397l.432.238-.282 1.2-.433-.238c-.23-.124-.52-.244-.874-.362s-.712-.176-1.077-.176c-.447 0-.806.126-1.077.38s-.406.604-.406 1.05c0 .494.16.888.477 1.182s.806.618 1.465.972c.588.317 1.06.605 1.412.864s.656.61.91 1.05.38.99.38 1.65c0 .718-.18 1.336-.538 1.854s-.845.915-1.456 1.19-1.295.415-2.047.415c-.778-.002-1.425-.105-1.943-.3z"/><path id="Y" d="M26.703 127.413c-.518-.206-.903-.427-1.156-.662s-.38-.377-.38-.424l.67-1.023c0 .023.115.132.344.326s.54.374.936.538.85.247 1.368.247c.553 0 .982-.146 1.29-.44s.46-.683.46-1.165c0-.307-.083-.574-.247-.804s-.368-.423-.61-.582l-1.015-.61a10.41 10.41 0 0 1-1.394-.847c-.365-.27-.677-.624-.936-1.06s-.388-.97-.388-1.605c0-.694.16-1.3.477-1.818a3.12 3.12 0 0 1 1.324-1.191c.564-.276 1.206-.415 1.924-.415a4.93 4.93 0 0 1 1.333.177c.417.118.77.25 1.06.397l.432.238-.282 1.2-.433-.238c-.23-.124-.52-.244-.874-.362s-.712-.176-1.077-.176c-.447 0-.806.126-1.077.38s-.406.604-.406 1.05c0 .494.16.888.477 1.182s.806.618 1.465.972c.588.317 1.06.605 1.412.864s.656.61.91 1.05.38.99.38 1.65c0 .718-.18 1.336-.538 1.854s-.845.915-1.456 1.19-1.295.415-2.047.415c-.778-.002-1.426-.105-1.943-.3z"/><path id="Z" d="M43.982 126.16c-.906-1.04-1.36-2.468-1.36-4.28 0-1.2.206-2.253.618-3.16s1.012-1.605 1.8-2.1 1.724-.742 2.807-.742a6.37 6.37 0 0 1 1.597.203 10.37 10.37 0 0 1 1.359.441l.573.256-.247 1.29c-.083-.047-.282-.14-.6-.274s-.697-.268-1.138-.396-.856-.194-1.245-.194c-.66 0-1.194.147-1.606.44s-.72.776-.927 1.447-.31 1.57-.31 2.7c0 1.66.24 2.842.724 3.548s1.23 1.06 2.24 1.06c.565 0 1.062-.12 1.492-.36s.776-.506 1.042-.795.397-.45.397-.485l.776.848c0 .06-.156.27-.468.636s-.768.703-1.368 1.015-1.335.468-2.206.468c-1.73-.003-3.047-.523-3.953-1.565z"/><path id="a" d="M86.71 103.31v-9.537h-2.888v-1.188h8.052v1.188h-2.87v9.537H86.71z"/><path id="b" d="M107.5 103.31V92.584h2.277v9.536h4.158v1.188H107.5z"/><path id="c" d="M128.06 103.31v-9.537h-2.887v-1.188h8.052v1.188h-2.87v9.537h-2.294z"/><path id="d" d="M134.726 103.31l.132-10.725h2.756l3.003 7.903h.065l2.954-7.903h2.558l.115 10.725h-2.228l-.115-8.118h-.05l-2.986 8.118h-1.7l-2.987-8.118h-.05l-.05 8.118h-1.42z"/><path id="e" d="M148.85 103.31V92.584h2.277v9.536h4.157v1.188h-6.434z"/><path id="f" d="M69.21 113.78c-.805-.97-1.208-2.328-1.208-4.07s.436-3.108 1.308-4.096 2.09-1.48 3.658-1.48a6.06 6.06 0 0 1 1.506.19c.497.127.924.265 1.283.413l.538.24-.248 1.208c-.077-.044-.262-.13-.555-.256a9.31 9.31 0 0 0-1.059-.373 4.17 4.17 0 0 0-1.167-.182c-.685 0-1.225.146-1.622.438s-.684.753-.86 1.382-.265 1.473-.265 2.532c0 1.5.215 2.588.646 3.26a2.07 2.07 0 0 0 1.854 1.009c.596 0 1.026-.16 1.29-.48s.436-.656.513-1v-2.002H73.15v-1.126h3.608v5.677h-.993l-.58-.943a2.83 2.83 0 0 1-1.018.811c-.425.2-.94.314-1.547.314-1.468 0-2.604-.486-3.4-1.456z"/><path id="g" d="M89.268 115.055l-3.227-10.758h2.417l2.548 9.086h.05l2.764-9.086h1.44l-3.46 10.758h-2.532z"/><path id="h" d="M117.038 115.055l-3.227-10.758h2.417l2.55 9.086h.05l2.764-9.086h1.44l-3.46 10.758h-2.533z"/><path id="i" d="M124.75 113.78c-.806-.97-1.208-2.328-1.208-4.07s.436-3.108 1.308-4.096 2.09-1.48 3.657-1.48a6.05 6.05 0 0 1 1.506.19 9.64 9.64 0 0 1 1.283.413l.538.24-.25 1.208a7.7 7.7 0 0 0-.554-.256c-.293-.127-.646-.25-1.06-.373a4.17 4.17 0 0 0-1.167-.182c-.684 0-1.225.146-1.622.438s-.684.753-.86 1.382-.265 1.473-.265 2.532c0 1.5.215 2.588.646 3.26a2.07 2.07 0 0 0 1.854 1.009c.596 0 1.026-.16 1.29-.48s.436-.656.513-1v-2.002h-1.67v-1.126h3.607v5.677h-.993l-.58-.943a2.83 2.83 0 0 1-1.018.811c-.425.2-.94.314-1.548.314-1.467 0-2.603-.486-3.41-1.456z"/></defs><clipPath id="j"><use xlink:href="#C"/></clipPath><circle fill="#810075" cx="29.167" cy="103.667" r="24" class="C"/><g class="C E"><use xlink:href="#E"/><use xlink:href="#F"/><use xlink:href="#G"/><use xlink:href="#H"/><use xlink:href="#I"/><use xlink:href="#J"/><use xlink:href="#K"/><path d="M85.437 103.31V92.584h2.277v9.536h4.158v1.188h-6.435z"/></g><g class="C D"><use xlink:href="#L"/><path d="M-.83 91.27c-.518-.206-.903-.427-1.156-.662s-.38-.377-.38-.424l.67-1.023c0 .023.115.132.344.326s.54.374.936.538.85.247 1.368.247c.553 0 .982-.146 1.29-.44s.46-.683.46-1.165c0-.307-.083-.574-.247-.804s-.368-.423-.61-.582l-1.015-.61a10.41 10.41 0 0 1-1.394-.847c-.365-.27-.677-.624-.936-1.06s-.388-.97-.388-1.606c0-.694.16-1.3.477-1.818a3.12 3.12 0 0 1 1.324-1.191c.564-.276 1.206-.415 1.924-.415a4.93 4.93 0 0 1 1.333.176c.417.118.77.25 1.06.397l.432.238-.282 1.2-.433-.238c-.23-.123-.52-.244-.874-.362s-.712-.177-1.077-.177c-.447 0-.806.126-1.077.38S.51 81.953.51 82.4c0 .494.16.89.477 1.183s.806.618 1.465.97c.588.318 1.06.606 1.412.865s.656.61.91 1.05.38.99.38 1.65c0 .718-.18 1.336-.538 1.854s-.845.915-1.456 1.19-1.295.415-2.047.415c-.778.001-1.425-.103-1.943-.308z"/><use xlink:href="#M"/><path d="M16.45 90.016c-.906-1.04-1.36-2.468-1.36-4.28 0-1.2.206-2.253.618-3.16s1.012-1.606 1.8-2.1 1.724-.74 2.807-.74a6.37 6.37 0 0 1 1.597.203c.523.135.977.282 1.36.44l.573.256-.247 1.29a7.73 7.73 0 0 0-.6-.273c-.317-.135-.697-.268-1.138-.397s-.856-.194-1.245-.194c-.66 0-1.194.147-1.606.44s-.72.776-.927 1.447-.31 1.57-.31 2.7c0 1.66.24 2.842.724 3.548s1.23 1.06 2.24 1.06c.565 0 1.062-.12 1.492-.36s.776-.506 1.042-.795.397-.45.397-.485l.776.848c0 .06-.156.27-.468.636s-.768.703-1.368 1.015-1.335.468-2.206.468c-1.73-.002-3.048-.523-3.953-1.565z"/><use xlink:href="#N"/><path d="M35.386 91.27c-.518-.206-.903-.427-1.156-.662s-.38-.377-.38-.424l.67-1.023c0 .023.115.132.344.326s.54.374.936.538.85.247 1.368.247c.553 0 .982-.146 1.29-.44s.46-.683.46-1.165c0-.307-.083-.574-.247-.804s-.368-.423-.61-.582l-1.015-.61a10.41 10.41 0 0 1-1.394-.847c-.365-.27-.677-.624-.936-1.06s-.388-.97-.388-1.606c0-.694.16-1.3.477-1.818a3.12 3.12 0 0 1 1.324-1.191c.564-.276 1.206-.415 1.924-.415a4.93 4.93 0 0 1 1.333.176c.417.118.77.25 1.06.397l.432.238-.282 1.2-.433-.238c-.23-.123-.52-.244-.874-.362s-.712-.177-1.077-.177c-.447 0-.806.126-1.077.38s-.406.604-.406 1.05c0 .494.16.89.477 1.183s.806.618 1.465.97c.588.318 1.06.606 1.412.865s.656.61.91 1.05.38.99.38 1.65c0 .718-.18 1.336-.538 1.854s-.845.915-1.456 1.19-1.295.415-2.047.415c-.778.001-1.425-.103-1.943-.308z"/><use xlink:href="#O"/><path d="M54.236 91.27c-.518-.206-.903-.427-1.156-.662s-.38-.377-.38-.424l.67-1.023c0 .023.115.132.344.326s.54.374.936.538.85.247 1.368.247c.553 0 .982-.146 1.3-.44s.46-.683.46-1.165c0-.307-.083-.574-.247-.804a2.27 2.27 0 0 0-.61-.582l-1.015-.6a10.41 10.41 0 0 1-1.394-.847c-.365-.27-.677-.624-.936-1.06s-.388-.97-.388-1.606c0-.694.16-1.3.477-1.818a3.12 3.12 0 0 1 1.324-1.191c.564-.276 1.206-.415 1.924-.415a4.93 4.93 0 0 1 1.333.176c.417.118.77.25 1.06.397l.432.238-.282 1.2-.433-.238c-.23-.123-.52-.244-.874-.362a3.38 3.38 0 0 0-1.077-.177c-.447 0-.806.126-1.077.38s-.406.604-.406 1.05c0 .494.16.9.477 1.183s.806.618 1.465.97c.588.318 1.06.606 1.412.865s.656.6.9 1.05.38 1 .38 1.65c0 .718-.18 1.336-.538 1.854s-.845.915-1.456 1.2-1.295.415-2.047.415c-.778.001-1.426-.103-1.943-.308zm8.684 0c-.518-.206-.903-.427-1.156-.662s-.38-.377-.38-.424l.67-1.023c0 .023.115.132.344.326s.54.374.936.538.85.247 1.368.247c.553 0 .982-.146 1.3-.44s.46-.683.46-1.165c0-.307-.083-.574-.247-.804a2.27 2.27 0 0 0-.61-.582l-1.015-.6a10.41 10.41 0 0 1-1.394-.847c-.365-.27-.677-.624-.936-1.06s-.388-.97-.388-1.606c0-.694.16-1.3.477-1.818a3.12 3.12 0 0 1 1.324-1.191c.564-.276 1.206-.415 1.924-.415a4.93 4.93 0 0 1 1.333.176c.417.118.77.25 1.06.397l.432.238-.282 1.2-.433-.238c-.23-.123-.52-.244-.874-.362a3.38 3.38 0 0 0-1.077-.177c-.447 0-.806.126-1.077.38s-.406.604-.406 1.05c0 .494.16.9.477 1.183s.806.618 1.465.97c.588.318 1.06.606 1.412.865s.656.6.9 1.05.38 1 .38 1.65c0 .718-.18 1.336-.538 1.854s-.845.915-1.456 1.2-1.295.415-2.047.415c-.778.001-1.425-.103-1.943-.308z"/></g><g class="B C"><use xlink:href="#P"/><use xlink:href="#Q"/><use xlink:href="#R"/><path d="M16.3 114.948c-.486-.193-.847-.4-1.084-.62s-.355-.353-.355-.396l.63-.96c0 .02.107.124.323.306s.507.35.877.505.797.23 1.283.23c.52 0 .92-.138 1.208-.413s.43-.64.43-1.093a1.26 1.26 0 0 0-.231-.753 2.17 2.17 0 0 0-.571-.546l-.952-.57a9.75 9.75 0 0 1-1.308-.794c-.342-.254-.635-.585-.877-.993s-.364-.9-.364-1.506c0-.65.15-1.22.447-1.705a2.94 2.94 0 0 1 1.241-1.117c.53-.26 1.13-.4 1.804-.4a4.66 4.66 0 0 1 1.25.165c.393.11.722.234.993.373l.406.223-.265 1.126-.405-.224c-.215-.117-.488-.23-.82-.34a3.18 3.18 0 0 0-1.009-.166c-.42 0-.756.12-1 .356s-.38.565-.38.984c0 .463.15.833.447 1.108s.755.58 1.374.9c.552.298.993.568 1.324.812s.615.57.853.984.356.93.356 1.548c0 .673-.168 1.252-.505 1.737a3.25 3.25 0 0 1-1.365 1.117c-.574.26-1.214.4-1.92.4-.733.001-1.34-.096-1.825-.288zm9.564.107l-3.227-10.758h2.417l2.548 9.086h.05l2.764-9.086h1.44l-3.46 10.758h-2.533z"/><use xlink:href="#S"/><path d="M44.06 114.948c-.486-.193-.847-.4-1.084-.62s-.355-.353-.355-.396l.63-.96c0 .02.107.124.323.306s.507.35.877.505.797.23 1.283.23c.52 0 .92-.138 1.208-.413s.43-.64.43-1.093a1.26 1.26 0 0 0-.231-.753 2.17 2.17 0 0 0-.571-.546l-.952-.57a9.75 9.75 0 0 1-1.308-.794c-.342-.254-.635-.585-.877-.993s-.364-.9-.364-1.506c0-.65.15-1.22.447-1.705a2.94 2.94 0 0 1 1.241-1.117c.53-.26 1.13-.4 1.804-.4a4.66 4.66 0 0 1 1.25.165c.393.11.722.234.993.373l.406.223-.265 1.126-.405-.224c-.215-.117-.488-.23-.82-.34a3.18 3.18 0 0 0-1.009-.166c-.42 0-.756.12-1 .356s-.38.565-.38.984c0 .463.15.833.447 1.108s.755.58 1.374.9c.552.298.993.568 1.324.812s.615.57.853.984.356.93.356 1.548c0 .673-.168 1.252-.505 1.737a3.25 3.25 0 0 1-1.365 1.117c-.574.26-1.214.4-1.92.4-.733.001-1.34-.096-1.825-.288zm9.565.107l-3.227-10.758h2.417l2.548 9.086h.05l2.764-9.086h1.44l-3.46 10.758h-2.533zm7.712-1.275c-.805-.97-1.208-2.328-1.208-4.07s.436-3.108 1.308-4.096 2.1-1.48 3.658-1.48a6.06 6.06 0 0 1 1.506.19c.497.127.924.265 1.283.413l.538.24-.248 1.208c-.077-.044-.262-.13-.555-.256a9.31 9.31 0 0 0-1.059-.373 4.17 4.17 0 0 0-1.167-.182c-.685 0-1.225.146-1.622.438s-.684.753-.86 1.382-.265 1.473-.265 2.532c0 1.5.215 2.588.646 3.26a2.07 2.07 0 0 0 1.854 1.009c.596 0 1.026-.16 1.3-.48s.436-.656.513-1v-2.002h-1.672v-1.126h3.608v5.677h-.993l-.58-.943a2.83 2.83 0 0 1-1.018.811c-.425.2-.94.314-1.547.314-1.468 0-2.604-.486-3.4-1.456z"/></g><g class="C E"><use xlink:href="#T"/><use xlink:href="#U"/><use xlink:href="#V"/><path d="M-38.825 103.3V92.584h2.277v9.536h4.158v1.188h-6.435zm7.903 0V92.584h2.277v4.686h3.712v-4.686h2.277v10.725h-2.277v-4.884h-3.712v4.884h-2.277zm12.656 0v-9.537h-2.888v-1.188h8.052v1.188h-2.87v9.537h-2.293zm6.666 0l.132-10.725h2.756l3.003 7.903h.066l2.954-7.903h2.557l.116 10.725h-2.228l-.115-8.118h-.05l-2.986 8.118h-1.7l-2.986-8.118h-.05l-.05 8.118h-1.42zm14.123 0V92.584H4.8v9.536h4.158v1.188H2.523z"/></g><g class="C D"><use xlink:href="#W"/><use xlink:href="#X"/><path d="M7.853 127.413c-.518-.206-.903-.427-1.156-.662s-.38-.377-.38-.424l.67-1.023c0 .023.115.132.344.326s.54.374.936.538.85.247 1.368.247c.553 0 .982-.146 1.3-.44s.46-.683.46-1.165c0-.307-.083-.574-.247-.804a2.27 2.27 0 0 0-.61-.582l-1.015-.6a10.41 10.41 0 0 1-1.394-.847c-.365-.27-.677-.624-.936-1.06s-.388-.97-.388-1.605c0-.694.16-1.3.477-1.818a3.12 3.12 0 0 1 1.324-1.191c.564-.276 1.206-.415 1.924-.415a4.93 4.93 0 0 1 1.333.177c.417.118.77.25 1.06.397l.432.238-.282 1.2-.433-.238c-.23-.124-.52-.244-.874-.362a3.38 3.38 0 0 0-1.077-.176c-.447 0-.806.126-1.077.38s-.406.604-.406 1.05c0 .494.16.888.477 1.182s.806.618 1.465.972c.588.317 1.06.605 1.412.864s.656.6.9 1.05.38 1 .38 1.65c0 .718-.18 1.336-.538 1.854s-.845.915-1.456 1.2-1.295.415-2.047.415c-.778-.002-1.425-.105-1.943-.3zm8.597-1.253c-.906-1.04-1.36-2.468-1.36-4.28 0-1.2.206-2.253.618-3.16s1.012-1.605 1.8-2.1 1.724-.742 2.807-.742a6.37 6.37 0 0 1 1.597.203 10.37 10.37 0 0 1 1.359.441l.573.256-.247 1.3c-.083-.047-.282-.14-.6-.274s-.697-.268-1.138-.396-.856-.194-1.245-.194c-.66 0-1.194.147-1.606.44s-.72.776-.927 1.447-.3 1.57-.3 2.7c0 1.66.24 2.842.724 3.548s1.23 1.06 2.24 1.06c.565 0 1.062-.12 1.492-.36s.776-.506 1.042-.795.397-.45.397-.485l.776.848c0 .06-.156.27-.468.636s-.768.703-1.368 1.015-1.335.468-2.206.468c-1.73-.003-3.048-.523-3.953-1.565z"/><use xlink:href="#Y"/><path d="M35.386 127.413c-.518-.206-.903-.427-1.156-.662s-.38-.377-.38-.424l.67-1.023c0 .023.115.132.344.326s.54.374.936.538.85.247 1.368.247c.553 0 .982-.146 1.29-.44s.46-.683.46-1.165c0-.307-.083-.574-.247-.804s-.368-.423-.61-.582l-1.015-.61a10.41 10.41 0 0 1-1.394-.847c-.365-.27-.677-.624-.936-1.06s-.388-.97-.388-1.605c0-.694.16-1.3.477-1.818a3.12 3.12 0 0 1 1.324-1.191c.564-.276 1.206-.415 1.924-.415a4.93 4.93 0 0 1 1.333.177c.417.118.77.25 1.06.397l.432.238-.282 1.2-.433-.238c-.23-.124-.52-.244-.874-.362s-.712-.176-1.077-.176c-.447 0-.806.126-1.077.38s-.406.604-.406 1.05c0 .494.16.888.477 1.182s.806.618 1.465.972c.588.317 1.06.605 1.412.864s.656.61.91 1.05.38.99.38 1.65c0 .718-.18 1.336-.538 1.854s-.845.915-1.456 1.19-1.295.415-2.047.415c-.778-.002-1.425-.105-1.943-.3z"/><use xlink:href="#Z"/><path d="M54.236 127.413c-.518-.206-.903-.427-1.156-.662s-.38-.377-.38-.424l.67-1.023c0 .023.115.132.344.326s.54.374.936.538.85.247 1.368.247c.553 0 .982-.146 1.3-.44s.46-.683.46-1.165c0-.307-.083-.574-.247-.804a2.27 2.27 0 0 0-.61-.582l-1.015-.6a10.41 10.41 0 0 1-1.394-.847c-.365-.27-.677-.624-.936-1.06s-.388-.97-.388-1.605c0-.694.16-1.3.477-1.818a3.12 3.12 0 0 1 1.324-1.191c.564-.276 1.206-.415 1.924-.415a4.93 4.93 0 0 1 1.333.177c.417.118.77.25 1.06.397l.432.238-.282 1.2-.433-.238c-.23-.124-.52-.244-.874-.362a3.38 3.38 0 0 0-1.077-.176c-.447 0-.806.126-1.077.38s-.406.604-.406 1.05c0 .494.16.888.477 1.182s.806.618 1.465.972c.588.317 1.06.605 1.412.864s.656.6.9 1.05.38 1 .38 1.65c0 .718-.18 1.336-.538 1.854s-.845.915-1.456 1.2-1.295.415-2.047.415c-.778-.002-1.426-.105-1.943-.3zm8.684 0c-.518-.206-.903-.427-1.156-.662s-.38-.377-.38-.424l.67-1.023c0 .023.115.132.344.326s.54.374.936.538.85.247 1.368.247c.553 0 .982-.146 1.3-.44s.46-.683.46-1.165c0-.307-.083-.574-.247-.804a2.27 2.27 0 0 0-.61-.582l-1.015-.6a10.41 10.41 0 0 1-1.394-.847c-.365-.27-.677-.624-.936-1.06s-.388-.97-.388-1.605c0-.694.16-1.3.477-1.818a3.12 3.12 0 0 1 1.324-1.191c.564-.276 1.206-.415 1.924-.415a4.93 4.93 0 0 1 1.333.177c.417.118.77.25 1.06.397l.432.238-.282 1.2-.433-.238c-.23-.124-.52-.244-.874-.362a3.38 3.38 0 0 0-1.077-.176c-.447 0-.806.126-1.077.38s-.406.604-.406 1.05c0 .494.16.888.477 1.182s.806.618 1.465.972c.588.317 1.06.605 1.412.864s.656.6.9 1.05.38 1 .38 1.65c0 .718-.18 1.336-.538 1.854s-.845.915-1.456 1.2-1.295.415-2.047.415c-.778-.002-1.425-.105-1.943-.3z"/></g><g class="C E"><use xlink:href="#E"/><use xlink:href="#F"/><use xlink:href="#G"/><use xlink:href="#H"/><use xlink:href="#I"/><use xlink:href="#J"/><use xlink:href="#K"/><path d="M85.437 103.31V92.584h2.277v9.536h4.158v1.188h-6.435z"/></g><g class="B C"><use xlink:href="#P"/><use xlink:href="#Q"/><use xlink:href="#R"/><path d="M16.3 114.948c-.486-.193-.847-.4-1.084-.62s-.355-.353-.355-.396l.63-.96c0 .02.107.124.323.306s.507.35.877.505.797.23 1.283.23c.52 0 .92-.138 1.208-.413s.43-.64.43-1.093a1.26 1.26 0 0 0-.231-.753 2.17 2.17 0 0 0-.571-.546l-.952-.57a9.75 9.75 0 0 1-1.308-.794c-.342-.254-.635-.585-.877-.993s-.364-.9-.364-1.506c0-.65.15-1.22.447-1.705a2.94 2.94 0 0 1 1.241-1.117c.53-.26 1.13-.4 1.804-.4a4.66 4.66 0 0 1 1.25.165c.393.11.722.234.993.373l.406.223-.265 1.126-.405-.224c-.215-.117-.488-.23-.82-.34a3.18 3.18 0 0 0-1.009-.166c-.42 0-.756.12-1 .356s-.38.565-.38.984c0 .463.15.833.447 1.108s.755.58 1.374.9c.552.298.993.568 1.324.812s.615.57.853.984.356.93.356 1.548c0 .673-.168 1.252-.505 1.737a3.25 3.25 0 0 1-1.365 1.117c-.574.26-1.214.4-1.92.4-.733.001-1.34-.096-1.825-.288zm9.564.107l-3.227-10.758h2.417l2.548 9.086h.05l2.764-9.086h1.44l-3.46 10.758h-2.533z"/><use xlink:href="#S"/><path d="M44.06 114.948c-.486-.193-.847-.4-1.084-.62s-.355-.353-.355-.396l.63-.96c0 .02.107.124.323.306s.507.35.877.505.797.23 1.283.23c.52 0 .92-.138 1.208-.413s.43-.64.43-1.093a1.26 1.26 0 0 0-.231-.753 2.17 2.17 0 0 0-.571-.546l-.952-.57a9.75 9.75 0 0 1-1.308-.794c-.342-.254-.635-.585-.877-.993s-.364-.9-.364-1.506c0-.65.15-1.22.447-1.705a2.94 2.94 0 0 1 1.241-1.117c.53-.26 1.13-.4 1.804-.4a4.66 4.66 0 0 1 1.25.165c.393.11.722.234.993.373l.406.223-.265 1.126-.405-.224c-.215-.117-.488-.23-.82-.34a3.18 3.18 0 0 0-1.009-.166c-.42 0-.756.12-1 .356s-.38.565-.38.984c0 .463.15.833.447 1.108s.755.58 1.374.9c.552.298.993.568 1.324.812s.615.57.853.984.356.93.356 1.548c0 .673-.168 1.252-.505 1.737a3.25 3.25 0 0 1-1.365 1.117c-.574.26-1.214.4-1.92.4-.733.001-1.34-.096-1.825-.288zm9.565.107l-3.227-10.758h2.417l2.548 9.086h.05l2.764-9.086h1.44l-3.46 10.758h-2.533zm7.712-1.275c-.805-.97-1.208-2.328-1.208-4.07s.436-3.108 1.308-4.096 2.1-1.48 3.658-1.48a6.06 6.06 0 0 1 1.506.19c.497.127.924.265 1.283.413l.538.24-.248 1.208c-.077-.044-.262-.13-.555-.256a9.31 9.31 0 0 0-1.059-.373 4.17 4.17 0 0 0-1.167-.182c-.685 0-1.225.146-1.622.438s-.684.753-.86 1.382-.265 1.473-.265 2.532c0 1.5.215 2.588.646 3.26a2.07 2.07 0 0 0 1.854 1.009c.596 0 1.026-.16 1.3-.48s.436-.656.513-1v-2.002h-1.672v-1.126h3.608v5.677h-.993l-.58-.943a2.83 2.83 0 0 1-1.018.811c-.425.2-.94.314-1.547.314-1.468 0-2.604-.486-3.4-1.456z"/></g><circle cx="92.358" cy="103.667" r="26" class="B"/><circle fill="#fff" cx="92.358" cy="103.667" r="24"/><defs><circle id="k" cx="92.358" cy="103.667" r="24"/></defs><clipPath id="l"><use xlink:href="#k"/></clipPath><circle fill="#810075" cx="92.358" cy="103.667" r="24" class="F"/><g class="F"><g class="D"><path d="M52.33 126.16c-.906-1.04-1.36-2.468-1.36-4.28 0-1.2.206-2.253.618-3.16s1.012-1.605 1.8-2.1 1.724-.742 2.807-.742a6.37 6.37 0 0 1 1.597.203 10.37 10.37 0 0 1 1.359.441l.573.256-.247 1.3c-.083-.047-.282-.14-.6-.274s-.697-.268-1.138-.396-.856-.194-1.245-.194c-.66 0-1.194.147-1.606.44s-.72.776-.927 1.447-.3 1.57-.3 2.7c0 1.66.24 2.842.724 3.548s1.23 1.06 2.24 1.06c.565 0 1.062-.12 1.492-.36s.776-.506 1.042-.795.397-.45.397-.485l.776.848c0 .06-.156.27-.468.636s-.768.703-1.368 1.015-1.335.468-2.206.468c-1.73-.003-3.048-.523-3.953-1.565zm10.253 1.253c-.518-.206-.903-.427-1.156-.662s-.38-.377-.38-.424l.67-1.023c0 .023.115.132.344.326s.54.374.936.538.85.247 1.368.247c.553 0 .982-.146 1.3-.44s.46-.683.46-1.165c0-.307-.083-.574-.247-.804a2.27 2.27 0 0 0-.61-.582l-1.015-.6a10.41 10.41 0 0 1-1.394-.847c-.365-.27-.677-.624-.936-1.06s-.388-.97-.388-1.605c0-.694.16-1.3.477-1.818a3.12 3.12 0 0 1 1.324-1.191c.564-.276 1.206-.415 1.924-.415a4.93 4.93 0 0 1 1.333.177c.417.118.77.25 1.06.397l.432.238-.282 1.2-.433-.238c-.23-.124-.52-.244-.874-.362a3.38 3.38 0 0 0-1.077-.176c-.447 0-.806.126-1.077.38s-.406.604-.406 1.05c0 .494.16.888.477 1.182s.806.618 1.465.972c.588.317 1.06.605 1.412.864s.656.6.9 1.05.38 1 .38 1.65c0 .718-.18 1.336-.538 1.854s-.845.915-1.456 1.2-1.295.415-2.047.415c-.778-.002-1.426-.105-1.943-.3zm8.683 0c-.518-.206-.903-.427-1.156-.662s-.38-.377-.38-.424l.67-1.023c0 .023.115.132.344.326s.54.374.936.538.85.247 1.368.247c.553 0 .982-.146 1.3-.44s.46-.683.46-1.165c0-.307-.083-.574-.247-.804a2.27 2.27 0 0 0-.61-.582l-1.015-.6a10.41 10.41 0 0 1-1.394-.847c-.365-.27-.677-.624-.936-1.06s-.388-.97-.388-1.605c0-.694.16-1.3.477-1.818a3.12 3.12 0 0 1 1.324-1.191c.564-.276 1.206-.415 1.924-.415a4.93 4.93 0 0 1 1.333.177c.417.118.77.25 1.06.397l.432.238-.282 1.2-.433-.238c-.23-.124-.52-.244-.874-.362a3.38 3.38 0 0 0-1.077-.176c-.447 0-.806.126-1.077.38s-.406.604-.406 1.05c0 .494.16.888.477 1.182s.806.618 1.465.972c.588.317 1.06.605 1.412.864s.656.6.9 1.05.38 1 .38 1.65c0 .718-.18 1.336-.538 1.854s-.845.915-1.456 1.2-1.295.415-2.047.415c-.778-.002-1.425-.105-1.943-.3zm8.596-1.253c-.906-1.04-1.36-2.468-1.36-4.28 0-1.2.206-2.253.618-3.16s1.012-1.605 1.8-2.1 1.724-.742 2.807-.742a6.37 6.37 0 0 1 1.597.203 10.37 10.37 0 0 1 1.359.441l.573.256-.247 1.3c-.083-.047-.282-.14-.6-.274s-.697-.268-1.138-.396-.856-.194-1.245-.194c-.66 0-1.194.147-1.606.44s-.72.776-.927 1.447-.3 1.57-.3 2.7c0 1.66.24 2.842.724 3.548s1.23 1.06 2.24 1.06c.565 0 1.062-.12 1.492-.36s.776-.506 1.042-.795.397-.45.397-.485l.776.848c0 .06-.156.27-.468.636s-.768.703-1.368 1.015-1.335.468-2.206.468c-1.73-.003-3.047-.523-3.953-1.565zm10.254 1.253c-.518-.206-.903-.427-1.156-.662s-.38-.377-.38-.424l.67-1.023c0 .023.115.132.344.326s.54.374.936.538.85.247 1.368.247c.553 0 .982-.146 1.3-.44s.46-.683.46-1.165c0-.307-.083-.574-.247-.804a2.27 2.27 0 0 0-.61-.582l-1.015-.6a10.41 10.41 0 0 1-1.394-.847c-.365-.27-.677-.624-.936-1.06s-.388-.97-.388-1.605c0-.694.16-1.3.477-1.818a3.12 3.12 0 0 1 1.324-1.191c.564-.276 1.206-.415 1.924-.415a4.93 4.93 0 0 1 1.333.177c.417.118.77.25 1.06.397l.432.238-.282 1.2-.433-.238c-.23-.124-.52-.244-.874-.362a3.38 3.38 0 0 0-1.077-.176c-.447 0-.806.126-1.077.38s-.406.604-.406 1.05c0 .494.16.888.477 1.182s.806.618 1.465.972c.588.317 1.06.605 1.412.864s.656.6.9 1.05.38 1 .38 1.65c0 .718-.18 1.336-.538 1.854s-.845.915-1.456 1.2-1.295.415-2.047.415c-.778-.002-1.426-.105-1.943-.3zm8.684 0c-.518-.206-.903-.427-1.156-.662s-.38-.377-.38-.424l.67-1.023c0 .023.115.132.344.326s.54.374.936.538.85.247 1.368.247c.553 0 .982-.146 1.3-.44s.46-.683.46-1.165c0-.307-.083-.574-.247-.804a2.27 2.27 0 0 0-.61-.582l-1.015-.6a10.41 10.41 0 0 1-1.394-.847c-.365-.27-.677-.624-.936-1.06s-.388-.97-.388-1.605c0-.694.16-1.3.477-1.818a3.12 3.12 0 0 1 1.324-1.191c.564-.276 1.206-.415 1.924-.415a4.93 4.93 0 0 1 1.333.177c.417.118.77.25 1.06.397l.432.238-.282 1.2-.433-.238c-.23-.124-.52-.244-.874-.362a3.38 3.38 0 0 0-1.077-.176c-.447 0-.806.126-1.077.38s-.406.604-.406 1.05c0 .494.16.888.477 1.182s.806.618 1.465.972c.588.317 1.06.605 1.412.864s.656.6.9 1.05.38 1 .38 1.65c0 .718-.18 1.336-.538 1.854s-.845.915-1.456 1.2-1.295.415-2.047.415c-.778-.002-1.425-.105-1.943-.3zm8.595-1.253c-.906-1.04-1.36-2.468-1.36-4.28 0-1.2.206-2.253.618-3.16s1.012-1.605 1.8-2.1 1.724-.742 2.807-.742a6.37 6.37 0 0 1 1.597.203 10.37 10.37 0 0 1 1.359.441l.573.256-.247 1.3c-.083-.047-.282-.14-.6-.274s-.697-.268-1.138-.396-.856-.194-1.245-.194c-.66 0-1.194.147-1.606.44s-.72.776-.927 1.447-.3 1.57-.3 2.7c0 1.66.24 2.842.724 3.548s1.23 1.06 2.24 1.06c.565 0 1.062-.12 1.492-.36s.776-.506 1.042-.795.397-.45.397-.485l.776.848c0 .06-.156.27-.468.636s-.768.703-1.368 1.015-1.335.468-2.206.468c-1.73-.003-3.047-.523-3.953-1.565zm10.255 1.253c-.518-.206-.903-.427-1.156-.662s-.38-.377-.38-.424l.67-1.023c0 .023.115.132.344.326s.54.374.935.538.85.247 1.368.247c.553 0 .982-.146 1.288-.44s.46-.683.46-1.165a1.34 1.34 0 0 0-.247-.804c-.165-.23-.367-.423-.608-.582l-1.015-.6c-.565-.294-1.03-.576-1.395-.847s-.677-.624-.936-1.06-.388-.97-.388-1.605c0-.694.16-1.3.477-1.818a3.12 3.12 0 0 1 1.324-1.191c.564-.276 1.206-.415 1.924-.415a4.91 4.91 0 0 1 1.332.177 5.88 5.88 0 0 1 1.06.397l.433.238-.283 1.2-.432-.238c-.23-.124-.52-.244-.874-.362a3.38 3.38 0 0 0-1.077-.176c-.447 0-.806.126-1.076.38s-.406.604-.406 1.05c0 .494.16.888.477 1.182s.806.618 1.465.972c.6.317 1.06.605 1.412.864s.656.6.9 1.05.38 1 .38 1.65c0 .718-.18 1.336-.54 1.854s-.844.915-1.456 1.2-1.294.415-2.047.415c-.778-.002-1.425-.105-1.943-.3zm8.683 0c-.52-.206-.903-.427-1.156-.662s-.38-.377-.38-.424l.67-1.023c0 .023.115.132.345.326s.54.374.935.538.85.247 1.368.247c.553 0 .982-.146 1.288-.44s.46-.683.46-1.165a1.34 1.34 0 0 0-.247-.804c-.165-.23-.367-.423-.608-.582l-1.015-.6c-.565-.294-1.03-.576-1.395-.847s-.677-.624-.936-1.06-.4-.97-.4-1.605c0-.694.16-1.3.477-1.818a3.12 3.12 0 0 1 1.324-1.19c.564-.275 1.206-.415 1.924-.415a4.91 4.91 0 0 1 1.332.177 5.88 5.88 0 0 1 1.06.397l.433.238-.283 1.2-.432-.238c-.23-.124-.52-.244-.874-.362a3.38 3.38 0 0 0-1.077-.176c-.447 0-.806.126-1.076.38s-.406.604-.406 1.05c0 .494.16.888.477 1.182s.806.618 1.465.972c.6.317 1.06.605 1.412.864s.656.6.9 1.05.38 1 .38 1.65c0 .718-.18 1.336-.54 1.854s-.844.915-1.456 1.2-1.294.415-2.047.415c-.778-.002-1.425-.105-1.943-.3z"/></g><g class="E"><path d="M74.056 103.31V92.584h2.277v4.686h3.712v-4.686h2.277v10.725h-2.277v-4.884h-3.712v4.884h-2.277z"/><use xlink:href="#a"/><path d="M93.377 103.31l.132-10.725h2.756l3.003 7.903h.066l2.954-7.903h2.557l.116 10.725h-2.228l-.115-8.118h-.05l-2.986 8.118h-1.7l-2.986-8.118h-.05l-.05 8.118h-1.42z"/><use xlink:href="#b"/><path d="M115.404 103.31V92.584h2.277v4.686h3.712v-4.686h2.277v10.725h-2.277v-4.884h-3.712v4.884h-2.277z"/><use xlink:href="#c"/><use xlink:href="#d"/><use xlink:href="#e"/></g><g class="B"><path d="M51.93 114.948c-.486-.193-.847-.4-1.084-.62s-.355-.353-.355-.396l.63-.96c0 .02.107.124.323.306s.507.35.877.505.797.23 1.283.23c.52 0 .92-.138 1.208-.413s.43-.64.43-1.093a1.26 1.26 0 0 0-.231-.753 2.17 2.17 0 0 0-.571-.546l-.952-.57a9.75 9.75 0 0 1-1.308-.794c-.342-.254-.635-.585-.877-.993s-.364-.9-.364-1.506c0-.65.15-1.22.447-1.705a2.94 2.94 0 0 1 1.241-1.117c.53-.26 1.13-.4 1.804-.4a4.66 4.66 0 0 1 1.25.165c.393.11.722.234.993.373l.406.223-.265 1.126-.405-.224c-.215-.117-.488-.23-.82-.34a3.18 3.18 0 0 0-1.009-.166c-.42 0-.756.12-1 .356s-.38.565-.38.984c0 .463.15.833.447 1.108s.755.58 1.374.9c.552.298.993.568 1.324.812s.615.57.853.984.356.93.356 1.548c0 .673-.168 1.252-.505 1.737a3.25 3.25 0 0 1-1.365 1.117c-.574.26-1.214.4-1.92.4-.733.001-1.34-.096-1.825-.288zm9.567.107l-3.227-10.758h2.417l2.548 9.086h.05l2.764-9.086h1.44l-3.46 10.758h-2.533z"/><use xlink:href="#f"/><path d="M79.702 114.948c-.486-.193-.847-.4-1.084-.62s-.355-.353-.355-.396l.63-.96c0 .02.107.124.323.306s.507.35.877.505.797.23 1.283.23c.52 0 .92-.138 1.208-.413s.43-.64.43-1.093a1.26 1.26 0 0 0-.231-.753 2.17 2.17 0 0 0-.571-.546l-.952-.57a9.75 9.75 0 0 1-1.308-.794c-.342-.254-.635-.585-.877-.993s-.364-.9-.364-1.506c0-.65.15-1.22.447-1.705a2.94 2.94 0 0 1 1.241-1.117c.53-.26 1.13-.39 1.804-.39.44 0 .857.056 1.25.165s.722.234.993.373l.406.223-.265 1.126-.405-.224c-.215-.117-.488-.23-.82-.34a3.18 3.18 0 0 0-1.009-.166c-.42 0-.756.12-1 .356s-.38.565-.38.984c0 .463.15.833.447 1.108s.755.58 1.374.9c.552.298.993.568 1.324.812s.615.57.853.984.356.93.356 1.548c0 .673-.168 1.252-.505 1.737a3.25 3.25 0 0 1-1.365 1.117c-.574.26-1.214.39-1.92.39-.733.001-1.34-.096-1.825-.288z"/><use xlink:href="#g"/><path d="M96.98 113.78c-.805-.97-1.208-2.328-1.208-4.07s.436-3.108 1.308-4.096 2.1-1.48 3.658-1.48a6.06 6.06 0 0 1 1.506.19c.497.127.924.265 1.283.413l.538.24-.248 1.208c-.077-.044-.262-.13-.555-.256a9.31 9.31 0 0 0-1.059-.373 4.17 4.17 0 0 0-1.167-.182c-.685 0-1.225.146-1.622.438s-.684.753-.86 1.382-.265 1.473-.265 2.532c0 1.5.215 2.588.646 3.26a2.07 2.07 0 0 0 1.854 1.009c.596 0 1.026-.16 1.3-.48s.436-.656.513-1v-2.002h-1.672v-1.126h3.608v5.677h-.993l-.58-.943a2.83 2.83 0 0 1-1.018.811c-.425.2-.94.314-1.547.314-1.468 0-2.604-.486-3.4-1.456zm10.493 1.168c-.486-.193-.847-.4-1.084-.62s-.355-.353-.355-.396l.63-.96c0 .02.107.124.323.306s.507.35.877.505.797.23 1.283.23c.52 0 .92-.138 1.208-.413s.43-.64.43-1.093a1.26 1.26 0 0 0-.231-.753 2.17 2.17 0 0 0-.571-.546l-.952-.57a9.75 9.75 0 0 1-1.308-.794c-.342-.254-.635-.585-.877-.993s-.364-.9-.364-1.506c0-.65.15-1.22.447-1.705a2.94 2.94 0 0 1 1.241-1.117c.53-.26 1.13-.4 1.804-.4a4.66 4.66 0 0 1 1.25.165c.393.11.722.234.993.373l.406.223-.265 1.126-.405-.224c-.215-.117-.488-.23-.82-.34a3.18 3.18 0 0 0-1.009-.166c-.42 0-.756.12-1 .356s-.38.565-.38.984c0 .463.15.833.447 1.108s.755.58 1.374.9c.552.298.993.568 1.324.812s.615.57.853.984.356.93.356 1.548c0 .673-.168 1.252-.505 1.737a3.25 3.25 0 0 1-1.365 1.117c-.574.26-1.214.4-1.92.4-.733.001-1.34-.096-1.825-.288z"/><use xlink:href="#h"/><use xlink:href="#i"/></g><g class="E"><path d="M-8.857 103.3V92.584h2.277v4.686h3.712v-4.686H-.6v10.725h-2.277v-4.884H-6.58v4.884h-2.277zm12.655 0v-9.537H.9v-1.188h8.052v1.188h-2.87v9.537H3.798zm6.666 0l.132-10.725h2.756l3.003 7.903h.066l2.954-7.903h2.557l.116 10.725H19.82l-.115-8.118h-.05L16.67 103.3h-1.7l-2.986-8.118h-.05l-.05 8.118h-1.42zm14.124 0V92.584h2.277v9.536h4.158v1.188h-6.435zm7.902 0V92.584h2.277v4.686h3.712v-4.686h2.277v10.725H38.48v-4.884h-3.712v4.884H32.5zm12.657 0v-9.537H42.26v-1.188h8.052v1.188h-2.87v9.537H45.15zm6.666 0l.132-10.725H54.7l3.003 7.903h.066l2.954-7.903h2.557l.116 10.725h-2.228l-.115-8.118h-.05l-2.986 8.118h-1.7L53.33 95.2h-.05l-.05 8.118H51.8zm14.124 0V92.584h2.277v9.536h4.158v1.188h-6.435zm8.12 0V92.584h2.277v4.686h3.712v-4.686h2.277v10.725h-2.277v-4.884h-3.712v4.884h-2.277z"/><use xlink:href="#a"/><path d="M93.377 103.31l.132-10.725h2.756l3.003 7.903h.066l2.954-7.903h2.557l.116 10.725h-2.228l-.115-8.118h-.05l-2.986 8.118h-1.7l-2.986-8.118h-.05l-.05 8.118h-1.42z"/><use xlink:href="#b"/><path d="M115.404 103.31V92.584h2.277v4.686h3.712v-4.686h2.277v10.725h-2.277v-4.884h-3.712v4.884h-2.277z"/><use xlink:href="#c"/><use xlink:href="#d"/><use xlink:href="#e"/></g><g class="D"><path d="M52.33 90.016c-.906-1.04-1.36-2.468-1.36-4.28 0-1.2.206-2.253.618-3.16s1.012-1.606 1.8-2.1 1.724-.74 2.807-.74a6.37 6.37 0 0 1 1.597.203c.523.135.977.282 1.36.44l.573.256-.247 1.3a7.73 7.73 0 0 0-.6-.273c-.317-.135-.697-.268-1.138-.397s-.856-.194-1.245-.194c-.66 0-1.194.147-1.606.44s-.72.776-.927 1.447-.3 1.57-.3 2.7c0 1.66.24 2.842.724 3.548s1.23 1.06 2.24 1.06c.565 0 1.062-.12 1.492-.36s.776-.506 1.042-.795.397-.45.397-.485l.776.848c0 .06-.156.27-.468.636s-.768.703-1.368 1.015-1.335.468-2.206.468c-1.73-.002-3.048-.523-3.953-1.565zm10.253 1.254c-.518-.206-.903-.427-1.156-.662s-.38-.377-.38-.424l.67-1.023c0 .023.115.132.344.326s.54.374.936.538.85.247 1.368.247c.553 0 .982-.146 1.3-.44s.46-.683.46-1.165c0-.307-.083-.574-.247-.804a2.27 2.27 0 0 0-.61-.582l-1.015-.6a10.41 10.41 0 0 1-1.394-.847c-.365-.27-.677-.624-.936-1.06s-.388-.97-.388-1.606c0-.694.16-1.3.477-1.818a3.12 3.12 0 0 1 1.324-1.191c.564-.276 1.206-.415 1.924-.415a4.93 4.93 0 0 1 1.333.176c.417.118.77.25 1.06.397l.432.238-.282 1.2-.433-.238c-.23-.123-.52-.244-.874-.362a3.38 3.38 0 0 0-1.077-.177c-.447 0-.806.126-1.077.38s-.406.604-.406 1.05c0 .494.16.9.477 1.183s.806.618 1.465.97c.588.318 1.06.606 1.412.865s.656.6.9 1.05.38 1 .38 1.65c0 .718-.18 1.336-.538 1.854s-.845.915-1.456 1.2-1.295.415-2.047.415c-.778.001-1.426-.103-1.943-.308zm8.683 0c-.518-.206-.903-.427-1.156-.662s-.38-.377-.38-.424l.67-1.023c0 .023.115.132.344.326s.54.374.936.538.85.247 1.368.247c.553 0 .982-.146 1.3-.44s.46-.683.46-1.165c0-.307-.083-.574-.247-.804a2.27 2.27 0 0 0-.61-.582l-1.015-.6a10.41 10.41 0 0 1-1.394-.847c-.365-.27-.677-.624-.936-1.06s-.388-.97-.388-1.606c0-.694.16-1.3.477-1.818a3.12 3.12 0 0 1 1.324-1.191c.564-.276 1.206-.415 1.924-.415a4.93 4.93 0 0 1 1.333.176c.417.118.77.25 1.06.397l.432.238-.282 1.2-.433-.238c-.23-.123-.52-.244-.874-.362a3.38 3.38 0 0 0-1.077-.177c-.447 0-.806.126-1.077.38s-.406.604-.406 1.05c0 .494.16.9.477 1.183s.806.618 1.465.97c.588.318 1.06.606 1.412.865s.656.6.9 1.05.38 1 .38 1.65c0 .718-.18 1.336-.538 1.854s-.845.915-1.456 1.2-1.295.415-2.047.415c-.778.001-1.425-.103-1.943-.308zm8.596-1.254c-.906-1.04-1.36-2.468-1.36-4.28 0-1.2.206-2.253.618-3.16s1.012-1.606 1.8-2.1 1.724-.74 2.807-.74a6.37 6.37 0 0 1 1.597.203c.523.135.977.282 1.36.44l.573.256-.247 1.3a7.73 7.73 0 0 0-.6-.273c-.317-.135-.697-.268-1.138-.397s-.856-.194-1.245-.194c-.66 0-1.194.147-1.606.44s-.72.776-.927 1.447-.3 1.57-.3 2.7c0 1.66.24 2.842.724 3.548s1.23 1.06 2.24 1.06c.565 0 1.062-.12 1.492-.36s.776-.506 1.042-.795.397-.45.397-.485l.776.848c0 .06-.156.27-.468.636s-.768.703-1.368 1.015-1.335.468-2.206.468c-1.73-.002-3.047-.523-3.953-1.565zm10.254 1.254c-.518-.206-.903-.427-1.156-.662s-.38-.377-.38-.424l.67-1.023c0 .023.115.132.344.326s.54.374.936.538.85.247 1.368.247c.553 0 .982-.146 1.3-.44s.46-.683.46-1.165c0-.307-.083-.574-.247-.804a2.27 2.27 0 0 0-.61-.582l-1.015-.6a10.41 10.41 0 0 1-1.394-.847c-.365-.27-.677-.624-.936-1.06s-.388-.97-.388-1.606c0-.694.16-1.3.477-1.818a3.12 3.12 0 0 1 1.324-1.191c.564-.276 1.206-.415 1.924-.415a4.93 4.93 0 0 1 1.333.176c.417.118.77.25 1.06.397l.432.238-.282 1.2-.433-.238c-.23-.123-.52-.244-.874-.362a3.38 3.38 0 0 0-1.077-.177c-.447 0-.806.126-1.077.38s-.406.604-.406 1.05c0 .494.16.9.477 1.183s.806.618 1.465.97c.588.318 1.06.606 1.412.865s.656.6.9 1.05.38 1 .38 1.65c0 .718-.18 1.336-.538 1.854s-.845.915-1.456 1.2-1.295.415-2.047.415c-.778.001-1.426-.103-1.943-.308zm8.684 0c-.518-.206-.903-.427-1.156-.662s-.38-.377-.38-.424l.67-1.023c0 .023.115.132.344.326s.54.374.936.538.85.247 1.368.247c.553 0 .982-.146 1.3-.44s.46-.683.46-1.165c0-.307-.083-.574-.247-.804a2.27 2.27 0 0 0-.61-.582l-1.015-.6a10.41 10.41 0 0 1-1.394-.847c-.365-.27-.677-.624-.936-1.06s-.388-.97-.388-1.606c0-.694.16-1.3.477-1.818a3.12 3.12 0 0 1 1.324-1.191c.564-.276 1.206-.415 1.924-.415a4.93 4.93 0 0 1 1.333.176c.417.118.77.25 1.06.397l.432.238-.282 1.2-.433-.238c-.23-.123-.52-.244-.874-.362a3.38 3.38 0 0 0-1.077-.177c-.447 0-.806.126-1.077.38s-.406.604-.406 1.05c0 .494.16.9.477 1.183s.806.618 1.465.97c.588.318 1.06.606 1.412.865s.656.6.9 1.05.38 1 .38 1.65c0 .718-.18 1.336-.538 1.854s-.845.915-1.456 1.2-1.295.415-2.047.415c-.778.001-1.425-.103-1.943-.308zm8.595-1.254c-.906-1.04-1.36-2.468-1.36-4.28 0-1.2.206-2.253.618-3.16s1.012-1.606 1.8-2.1 1.724-.74 2.807-.74a6.37 6.37 0 0 1 1.597.203c.523.135.977.282 1.36.44l.573.256-.247 1.3a7.73 7.73 0 0 0-.6-.273c-.317-.135-.697-.268-1.138-.397s-.856-.194-1.245-.194c-.66 0-1.194.147-1.606.44s-.72.776-.927 1.447-.3 1.57-.3 2.7c0 1.66.24 2.842.724 3.548s1.23 1.06 2.24 1.06c.565 0 1.062-.12 1.492-.36s.776-.506 1.042-.795.397-.45.397-.485l.776.848c0 .06-.156.27-.468.636s-.768.703-1.368 1.015-1.335.468-2.206.468c-1.73-.002-3.047-.523-3.953-1.565zm10.255 1.254c-.518-.206-.903-.427-1.156-.662s-.38-.377-.38-.424l.67-1.023c0 .023.115.132.344.326s.54.374.935.538.85.247 1.368.247c.553 0 .982-.146 1.288-.44s.46-.683.46-1.165a1.34 1.34 0 0 0-.247-.804c-.165-.23-.367-.423-.608-.582l-1.015-.6c-.565-.294-1.03-.576-1.395-.847s-.677-.624-.936-1.06-.388-.97-.388-1.606c0-.694.16-1.3.477-1.818a3.12 3.12 0 0 1 1.324-1.191c.564-.276 1.206-.415 1.924-.415a4.91 4.91 0 0 1 1.332.176 5.88 5.88 0 0 1 1.06.397l.433.238-.283 1.2-.432-.238c-.23-.123-.52-.244-.874-.362a3.38 3.38 0 0 0-1.077-.177c-.447 0-.806.126-1.076.38s-.406.604-.406 1.05c0 .494.16.9.477 1.183s.806.618 1.465.97c.6.318 1.06.606 1.412.865s.656.6.9 1.05.38 1 .38 1.65c0 .718-.18 1.336-.54 1.854s-.844.915-1.456 1.2-1.294.415-2.047.415c-.778.001-1.425-.103-1.943-.308zm8.683 0c-.52-.206-.903-.427-1.156-.662s-.38-.377-.38-.424l.67-1.023c0 .023.115.132.345.326s.54.374.935.538.85.247 1.368.247c.553 0 .982-.146 1.288-.44s.46-.683.46-1.165a1.34 1.34 0 0 0-.247-.804c-.165-.23-.367-.423-.608-.582l-1.015-.6c-.565-.294-1.03-.576-1.395-.847s-.677-.624-.936-1.06-.4-.97-.4-1.606c0-.694.16-1.3.477-1.818a3.12 3.12 0 0 1 1.324-1.19c.564-.275 1.206-.415 1.924-.415a4.91 4.91 0 0 1 1.332.176 5.88 5.88 0 0 1 1.06.397l.433.238-.283 1.2-.432-.238c-.23-.123-.52-.244-.874-.362a3.38 3.38 0 0 0-1.077-.177c-.447 0-.806.126-1.076.38s-.406.604-.406 1.05c0 .494.16.9.477 1.183s.806.618 1.465.97c.6.318 1.06.606 1.412.865s.656.6.9 1.05.38 1 .38 1.65c0 .718-.18 1.336-.54 1.854s-.844.915-1.456 1.2-1.294.415-2.047.415c-.778.001-1.425-.103-1.943-.308z"/></g><g class="B"><path d="M51.93 114.948c-.486-.193-.847-.4-1.084-.62s-.355-.353-.355-.396l.63-.96c0 .02.107.124.323.306s.507.35.877.505.797.23 1.283.23c.52 0 .92-.138 1.208-.413s.43-.64.43-1.093a1.26 1.26 0 0 0-.231-.753 2.17 2.17 0 0 0-.571-.546l-.952-.57a9.75 9.75 0 0 1-1.308-.794c-.342-.254-.635-.585-.877-.993s-.364-.9-.364-1.506c0-.65.15-1.22.447-1.705a2.94 2.94 0 0 1 1.241-1.117c.53-.26 1.13-.4 1.804-.4a4.66 4.66 0 0 1 1.25.165c.393.11.722.234.993.373l.406.223-.265 1.126-.405-.224c-.215-.117-.488-.23-.82-.34a3.18 3.18 0 0 0-1.009-.166c-.42 0-.756.12-1 .356s-.38.565-.38.984c0 .463.15.833.447 1.108s.755.58 1.374.9c.552.298.993.568 1.324.812s.615.57.853.984.356.93.356 1.548c0 .673-.168 1.252-.505 1.737a3.25 3.25 0 0 1-1.365 1.117c-.574.26-1.214.4-1.92.4-.733.001-1.34-.096-1.825-.288zm9.567.107l-3.227-10.758h2.417l2.548 9.086h.05l2.764-9.086h1.44l-3.46 10.758h-2.533z"/><use xlink:href="#f"/><path d="M79.702 114.948c-.486-.193-.847-.4-1.084-.62s-.355-.353-.355-.396l.63-.96c0 .02.107.124.323.306s.507.35.877.505.797.23 1.283.23c.52 0 .92-.138 1.208-.413s.43-.64.43-1.093a1.26 1.26 0 0 0-.231-.753 2.17 2.17 0 0 0-.571-.546l-.952-.57a9.75 9.75 0 0 1-1.308-.794c-.342-.254-.635-.585-.877-.993s-.364-.9-.364-1.506c0-.65.15-1.22.447-1.705a2.94 2.94 0 0 1 1.241-1.117c.53-.26 1.13-.39 1.804-.39.44 0 .857.056 1.25.165s.722.234.993.373l.406.223-.265 1.126-.405-.224c-.215-.117-.488-.23-.82-.34a3.18 3.18 0 0 0-1.009-.166c-.42 0-.756.12-1 .356s-.38.565-.38.984c0 .463.15.833.447 1.108s.755.58 1.374.9c.552.298.993.568 1.324.812s.615.57.853.984.356.93.356 1.548c0 .673-.168 1.252-.505 1.737a3.25 3.25 0 0 1-1.365 1.117c-.574.26-1.214.39-1.92.39-.733.001-1.34-.096-1.825-.288z"/><use xlink:href="#g"/><path d="M96.98 113.78c-.805-.97-1.208-2.328-1.208-4.07s.436-3.108 1.308-4.096 2.1-1.48 3.658-1.48a6.06 6.06 0 0 1 1.506.19c.497.127.924.265 1.283.413l.538.24-.248 1.208c-.077-.044-.262-.13-.555-.256a9.31 9.31 0 0 0-1.059-.373 4.17 4.17 0 0 0-1.167-.182c-.685 0-1.225.146-1.622.438s-.684.753-.86 1.382-.265 1.473-.265 2.532c0 1.5.215 2.588.646 3.26a2.07 2.07 0 0 0 1.854 1.009c.596 0 1.026-.16 1.3-.48s.436-.656.513-1v-2.002h-1.672v-1.126h3.608v5.677h-.993l-.58-.943a2.83 2.83 0 0 1-1.018.811c-.425.2-.94.314-1.547.314-1.468 0-2.604-.486-3.4-1.456zm10.493 1.168c-.486-.193-.847-.4-1.084-.62s-.355-.353-.355-.396l.63-.96c0 .02.107.124.323.306s.507.35.877.505.797.23 1.283.23c.52 0 .92-.138 1.208-.413s.43-.64.43-1.093a1.26 1.26 0 0 0-.231-.753 2.17 2.17 0 0 0-.571-.546l-.952-.57a9.75 9.75 0 0 1-1.308-.794c-.342-.254-.635-.585-.877-.993s-.364-.9-.364-1.506c0-.65.15-1.22.447-1.705a2.94 2.94 0 0 1 1.241-1.117c.53-.26 1.13-.4 1.804-.4a4.66 4.66 0 0 1 1.25.165c.393.11.722.234.993.373l.406.223-.265 1.126-.405-.224c-.215-.117-.488-.23-.82-.34a3.18 3.18 0 0 0-1.009-.166c-.42 0-.756.12-1 .356s-.38.565-.38.984c0 .463.15.833.447 1.108s.755.58 1.374.9c.552.298.993.568 1.324.812s.615.57.853.984.356.93.356 1.548c0 .673-.168 1.252-.505 1.737a3.25 3.25 0 0 1-1.365 1.117c-.574.26-1.214.4-1.92.4-.733.001-1.34-.096-1.825-.288z"/><use xlink:href="#h"/><use xlink:href="#i"/></g></g><linearGradient id="m" gradientUnits="userSpaceOnUse" x1="45.029" y1="121.751" x2="60.502" y2="121.751"><stop offset="0" stop-color="#f51e30"/><stop offset=".228" stop-color="#f7283c" stop-opacity=".772"/><stop offset=".641" stop-color="#fb425d" stop-opacity=".36"/><stop offset="1" stop-color="#ff5d7e" stop-opacity="0"/></linearGradient><path fill="url(#m)" d="M58.667 103.667l-14.833 31.166s-3.667 5 2.167 5h12.667v-36.166z"/><linearGradient id="n" gradientUnits="userSpaceOnUse" x1="140.975" y1="165.625" x2="128.7" y2="165.909"><stop offset="0" stop-color="#f51e30"/><stop offset=".228" stop-color="#f7283c" stop-opacity=".772"/><stop offset=".641" stop-color="#fb425d" stop-opacity=".36"/><stop offset="1" stop-color="#ff5d7e" stop-opacity="0"/></linearGradient><path fill="url(#n)" d="M144.014 98.298c-.11-2.098-14.028-29.778-19.847-27.465-1.117 4.75 5 20.667 3.833 31-1.46 12.924-.16 62.137-.102 102.384l.11 56.616H145l-.986-162.535z"/><path d="M118 102.667h36.5v2H118z" class="B"/><linearGradient id="o" gradientUnits="userSpaceOnUse" x1="150.614" y1="72.58" x2="129.409" y2="108.854"><stop offset="0" stop-color="#f51e30"/><stop offset=".228" stop-color="#f7283c" stop-opacity=".772"/><stop offset=".641" stop-color="#fb425d" stop-opacity=".36"/><stop offset="1" stop-color="#ff5d7e" stop-opacity="0"/></linearGradient><path fill="url(#o)" d="M118.212 11.833C89.867 11.833 64.28 23.6 46.09 42.5l-1.2 1.285-.34.366-1.092 1.2-.416.467-1.038 1.2-.424.5-1.012 1.224-.398.494-1 1.277-.336.438-1.037 1.372-.223.304a99.72 99.72 0 0 0-6.857 10.69c-.01.018-.02.034-.03.052l-.975 1.805-.084.16-.916 1.8-.1.18-.883 1.823-.064.137-.873 1.908c37.92 3.915 43.155-22.46 43.822-27.762-.29 3.7-.51 17.654 11.802 23.413C96.66 73.5 113.29 69.167 119.74 73.5s18.667 10.333 18.327 33.333l-.104 102.384.11 56.616H163s8.715-254-44.788-254z"/><linearGradient id="p" gradientUnits="userSpaceOnUse" x1="48.777" y1="36.936" x2="69.505" y2="62.181"><stop offset="0" stop-color="#f51e30"/><stop offset=".228" stop-color="#f7283c" stop-opacity=".772"/><stop offset=".641" stop-color="#fb425d" stop-opacity=".36"/><stop offset="1" stop-color="#ff5d7e" stop-opacity="0"/></linearGradient><path fill="url(#p)" d="M118.212 11.833C89.867 11.833 64.28 23.6 46.09 42.5l-1.2 1.285-.34.366-1.092 1.2-.416.467-1.038 1.2-.424.5-1.012 1.224-.398.494-1 1.277-.336.438-1.037 1.372-.223.304a99.72 99.72 0 0 0-6.857 10.69c-.01.018-.02.034-.03.052l-.975 1.805-.084.16-.916 1.8-.1.18-.883 1.823-.064.137-.873 1.908c37.92 3.915 43.155-22.46 43.822-27.762-.29 3.7-.51 17.654 11.802 23.413C96.66 73.5 113.29 69.167 119.74 73.5s18.667 10.333 18.327 33.333l-.104 102.384.11 56.616H166.5s5.215-254-48.288-254z"/><path d="M216.042 101.445C213.45 48.75 170.547 6.833 118 6.833 90.162 6.833 65.032 18.6 47.167 37.5l-1.188 1.285-.335.366-1.072 1.2-.408.467-1.02 1.2-.417.5-.994 1.224-.39.494-.992 1.277-.33.438-1.018 1.372-.22.304a99.98 99.98 0 0 0-6.735 10.69c-.01.018-.02.034-.028.052l-1.04 1.965-.9 1.8-.088.18-.868 1.823-.063.137-.857 1.908c37.242 3.915 42.383-22.46 43.038-27.762-.283 3.7-.5 17.654 11.59 23.413 14 6.667 30.334 2.333 36.667 6.667s18.334 10.333 18 33.333L137.4 204.22l.11 56.616h78.66V106.5c0-1.695-.042-3.38-.125-5.055z" class="B"/><linearGradient id="q" gradientUnits="userSpaceOnUse" x1="170.175" y1="110.717" x2="176.342" y2="155.362"><stop offset="0" stop-color="#f51e30"/><stop offset=".211" stop-color="#f6263a" stop-opacity=".79"/><stop offset=".571" stop-color="#fa3c56" stop-opacity=".43"/><stop offset="1" stop-color="#ff5d7e" stop-opacity="0"/></linearGradient><path fill="url(#q)" d="M163.527 131.625h22.76v26.71h-22.76z"/><path d="M186.287 131.625c0 12.864-10.43 23.292-23.293 23.292v-46.583c12.864-.001 23.293 10.427 23.293 23.29z" class="D"/><linearGradient id="r" gradientUnits="userSpaceOnUse" x1="176.428" y1="131.859" x2="162.477" y2="131.577"><stop offset="0" stop-color="#f51e30"/><stop offset=".228" stop-color="#f7283c" stop-opacity=".772"/><stop offset=".641" stop-color="#fb425d" stop-opacity=".36"/><stop offset="1" stop-color="#ff5d7e" stop-opacity="0"/></linearGradient><path fill="url(#r)" d="M178.516 131.625c0 7.595-6.156 13.75-13.75 13.75v-27.5c7.593 0 13.75 6.156 13.75 13.75z"/></svg>